<?xml version="1.0" encoding="UTF-8" standalone="no"?>
<svg
   xmlns:dc="http://purl.org/dc/elements/1.1/"
   xmlns:cc="http://creativecommons.org/ns#"
   xmlns:rdf="http://www.w3.org/1999/02/22-rdf-syntax-ns#"
   xmlns:svg="http://www.w3.org/2000/svg"
   xmlns="http://www.w3.org/2000/svg"
   xmlns:sodipodi="http://sodipodi.sourceforge.net/DTD/sodipodi-0.dtd"
   xmlns:inkscape="http://www.inkscape.org/namespaces/inkscape"
   version="1.1"
   id="ic-transaction-staked"
   x="0px"
   y="0px"
   viewBox="0 0 24 24"
   style="enable-background:new 0 0 24 24;"
   xml:space="preserve"
   sodipodi:docname="ic-check-cold-staking-off.svg"
   inkscape:version="1.0.2-2 (e86c870879, 2021-01-15)"><metadata
   id="metadata13"><rdf:RDF><cc:Work
       rdf:about=""><dc:format>image/svg+xml</dc:format><dc:type
         rdf:resource="http://purl.org/dc/dcmitype/StillImage" /></cc:Work></rdf:RDF></metadata><defs
   id="defs11" /><sodipodi:namedview
   pagecolor="#ffffff"
   bordercolor="#666666"
   borderopacity="1"
   objecttolerance="10"
   gridtolerance="10"
   guidetolerance="10"
   inkscape:pageopacity="0"
   inkscape:pageshadow="2"
   inkscape:window-width="1920"
   inkscape:window-height="1017"
   id="namedview9"
   showgrid="false"
   inkscape:zoom="35.416667"
   inkscape:cx="12"
   inkscape:cy="12"
   inkscape:window-x="-8"
   inkscape:window-y="-8"
   inkscape:window-maximized="1"
   inkscape:current-layer="ic-transaction-staked"
   inkscape:document-rotation="0" />
<style
   type="text/css"
   id="style2">
	.st0{fill:#932178;}
	.st1{fill:none;}
</style>
<path
   id="Path_18914"
   class="st0"
   d="M42.1,6V4.9c-0.1-1.7-1.5-3-3.2-2.9c-1.4,0.1-2.6,1.1-2.8,2.6l0,0l0,0  c-0.2-1.6-1.8-2.8-3.4-2.5c-1.5,0.2-2.6,1.5-2.6,3v1h-4v6h2v10h16V12h2V6H42.1z M38.1,5.4V5c0-0.6,0.4-1,1-1s1,0.4,1,1v1h-2.6  L38.1,5.4z M37.1,8v8h-2V8H37.1z M32.1,5c0-0.6,0.4-1,1-1s1,0.4,1,1v0.4L34.7,6h-2.6C32.1,6,32.1,5,32.1,5z M28.1,8h5v2h-5  C28.1,10,28.1,8,28.1,8z M42.1,20h-12v-8h3v6h6v-6h3V20z M44.1,10h-5V8h5V10z" />
<path
   id="Rectangle_4527"
   class="st1"
   d="M0,0h24v24H0V0z" />
<path
   class="st0"
   d="M21.4,16.3l-2.8-1.5l2.5-0.6c0.5-0.1,0.7-0.6,0.6-1s-0.6-0.7-1-0.6l-4.2,1.1l-2.7-1.5l2.7-1.5l4.2,1.1  c0.1,0,0.1,0,0.2,0c0.4,0,0.7-0.2,0.8-0.6c0.1-0.4-0.1-0.9-0.6-1l-2.5-0.6l2.8-1.5c0.4-0.2,0.5-0.7,0.3-1.1s-0.8-0.5-1.2-0.3L17.8,8  l0.7-2.4c0.1-0.4-0.1-0.9-0.6-1s-0.9,0.1-1,0.6l-1.1,4l-2.7,1.5v-3L16,4.8c0.3-0.3,0.3-0.8,0-1.2c-0.3-0.3-0.9-0.3-1.2,0L13,5.4V2.3  c0-0.5-0.4-0.8-0.9-0.8s-0.9,0.4-0.9,0.8v3.1L9.4,3.6C9,3.3,8.5,3.3,8.2,3.6s-0.3,0.8,0,1.2l3.1,2.9v3L8.5,9.2l-1.1-4  c-0.1-0.4-0.6-0.7-1-0.6c-0.5,0.1-0.7,0.6-0.6,1L6.4,8L3.6,6.5C3.2,6.3,2.7,6.4,2.4,6.8C2.2,7.2,2.3,7.7,2.7,7.9l2.8,1.5L3,10.1  c-0.5,0.1-0.7,0.6-0.6,1c0.1,0.4,0.4,0.6,0.8,0.6c0.1,0,0.1,0,0.2,0l4.2-1.1l2.7,1.5l-2.7,1.5l-4.2-1.1c-0.5-0.1-0.9,0.1-1,0.6  c-0.1,0.4,0.1,0.9,0.6,1l2.5,0.6l-2.8,1.5c-0.4,0.2-0.5,0.7-0.3,1.1c0.2,0.3,0.4,0.4,0.7,0.4c0.1,0,0.3,0,0.4-0.1l2.8-1.5l-0.7,2.4  c-0.1,0.4,0.1,0.9,0.6,1c0.1,0,0.1,0,0.2,0c0.4,0,0.7-0.2,0.8-0.6l1.1-4l2.7-1.5v3l-3.1,2.9c-0.3,0.3-0.3,0.8,0,1.2  c0.3,0.3,0.9,0.3,1.2,0l1.8-1.8v3.1c0,0.5,0.4,0.8,0.9,0.8s0.9-0.4,0.9-0.8v-3.1l1.8,1.8c0.2,0.2,0.4,0.2,0.6,0.2  c0.2,0,0.4-0.1,0.6-0.2c0.3-0.3,0.3-0.8,0-1.2l-3.1-2.9v-3l2.7,1.5l1.1,4c0.1,0.4,0.4,0.6,0.8,0.6c0.1,0,0.1,0,0.2,0  c0.5-0.1,0.7-0.6,0.6-1l-0.7-2.4l2.8,1.5c0.1,0.1,0.3,0.1,0.4,0.1c0.3,0,0.6-0.1,0.7-0.4C22,17,21.8,16.5,21.4,16.3z"
   id="path6" />
<path
   style="fill:#fffeab;stroke-width:0.0282353"
   d="m 11.514657,22.548406 c -0.261852,-0.07545 -0.49072,-0.278667 -0.554829,-0.492644 -0.02322,-0.07752 -0.03277,-0.583373 -0.03277,-1.736685 0,-0.895022 -0.0091,-1.627312 -0.02027,-1.627312 -0.01115,0 -0.452676,0.430389 -0.9811767,0.956419 -0.8870354,0.882891 -0.972511,0.960194 -1.1118146,1.005509 -0.2744725,0.08929 -0.6168232,0.04856 -0.8224072,-0.09783 C 7.813643,20.429296 7.6588822,20.020526 7.6935489,19.769177 7.7327239,19.485138 7.7499909,19.4665 9.4240952,17.901171 l 1.5853628,-1.482352 0.0012,-1.519711 0.0012,-1.519711 -0.249403,0.136181 c -0.137171,0.0749 -0.75023,0.414528 -1.3623527,0.754728 l -1.1129506,0.618547 -0.519366,1.894395 c -0.6717989,2.450396 -0.6264497,2.308781 -0.7925234,2.474855 -0.1607574,0.160756 -0.3384613,0.224245 -0.6276616,0.224245 -0.2425719,0 -0.4055094,-0.07202 -0.5599799,-0.247504 -0.1255502,-0.142632 -0.1978111,-0.342837 -0.1953204,-0.54115 9.826e-4,-0.07817 0.1435993,-0.612918 0.3619736,-1.357228 0.1981946,-0.67553 0.3523734,-1.231659 0.3426198,-1.235842 -0.015369,-0.0066 -2.4160335,1.267112 -2.81318,1.492569 -0.1262856,0.07169 -0.1728055,0.08202 -0.3670588,0.08148 C 2.8486315,17.673929 2.7090326,17.619004 2.5447184,17.449689 2.3381552,17.23684 2.2638992,16.904425 2.359947,16.62254 2.4502091,16.357635 2.5046321,16.321149 3.9952941,15.526158 5.4585857,14.745764 5.517731,14.713025 5.498686,14.69398 5.4920329,14.687327 4.9061498,14.542325 4.1967231,14.371752 3.4872965,14.20118 2.8595196,14.037222 2.8016635,14.007402 2.6770382,13.943168 2.5397276,13.803174 2.4666904,13.665882 c -0.040649,-0.07641 -0.052573,-0.159659 -0.052573,-0.367058 0,-0.24493 0.00736,-0.281642 0.084706,-0.422526 0.1615195,-0.294205 0.459714,-0.43326 0.8004058,-0.373248 0.087902,0.01548 1.0857175,0.270749 2.2173686,0.567257 1.1316511,0.296508 2.06664,0.539105 2.0777532,0.539105 0.047833,0 2.696979,-1.487105 2.692889,-1.51166 -0.0025,-0.01494 -0.6060185,-0.361799 -1.3411769,-0.770797 L 7.6094118,10.583321 5.4811262,11.139904 C 3.504338,11.656868 3.3395286,11.69552 3.165832,11.682899 2.6606516,11.646191 2.373954,11.324927 2.4061747,10.831651 2.4270153,10.512595 2.5804832,10.284883 2.8517647,10.170493 2.9216471,10.141026 3.5473283,9.9593161 4.2421674,9.7666936 4.9370066,9.574071 5.5055949,9.4091311 5.5056968,9.4001608 5.5057988,9.3911904 4.8801176,9.0491864 4.1152941,8.6401519 3.3504706,8.2311171 2.6734029,7.8617017 2.6106994,7.8192288 2.3718213,7.6574216 2.2607893,7.2890005 2.354134,6.9679056 2.417814,6.7488545 2.6364867,6.5475095 2.8986538,6.4665343 3.1154684,6.3995672 3.2124024,6.3958292 3.4032585,6.4470757 3.4804075,6.4677911 4.1851765,6.8293787 4.9694118,7.2506039 5.7536471,7.6718293 6.3989557,8.0060132 6.403431,7.993235 6.4079065,7.9804566 6.2713183,7.4094401 6.0999016,6.7243093 5.9284851,6.0391784 5.7882353,5.4362341 5.7882353,5.384433 c 0,-0.051801 0.018637,-0.1569433 0.041417,-0.2336496 C 5.9241693,4.8325121 6.1793563,4.6334479 6.5245012,4.608753 6.6941936,4.596612 6.7359717,4.604593 6.8943714,4.679419 7.0823561,4.76822 7.2875524,4.9528931 7.340637,5.0810505 7.357983,5.1229275 7.6229939,6.0690314 7.9295504,7.1835042 L 8.4869252,9.2098176 9.8770086,9.955497 c 0.7645464,0.410124 1.4025174,0.745679 1.4177134,0.745679 0.01768,0 0.02745,-0.541607 0.02714,-1.5035289 L 11.321365,7.6941176 9.750094,6.2258824 C 8.2806675,4.8528124 8.1734646,4.7462061 8.0961422,4.5811338 7.8920039,4.1453271 8.0101632,3.7001198 8.3858824,3.4894345 8.523369,3.4123385 8.5670781,3.4023555 8.7670588,3.4023754 c 0.4005626,3.95e-5 0.4218811,0.015562 1.5026502,1.0940593 l 0.937944,0.9359732 0.0079,-1.6503216 0.0079,-1.6503216 0.0647,-0.1211715 c 0.08767,-0.1641809 0.249803,-0.3208344 0.417476,-0.4033581 0.119178,-0.058656 0.179264,-0.068368 0.421353,-0.068108 0.251751,2.707e-4 0.298076,0.00856 0.427421,0.076518 0.07979,0.041918 0.191251,0.1301673 0.247695,0.1961099 0.185977,0.2172719 0.18606,0.2181702 0.18606,2.0112665 V 5.4334409 L 13.955217,4.471133 c 1.086211,-1.080875 1.069676,-1.0687805 1.461177,-1.0687805 0.39698,0 0.63866,0.1851633 0.752834,0.5767844 0.05621,0.1928196 0.03833,0.4568519 -0.04131,0.6099284 -0.03471,0.066717 -0.66502,0.7179967 -1.556693,1.6084814 l -1.498366,1.4963706 v 1.5036294 c 0,1.0382263 0.0092,1.5036293 0.02986,1.5036293 0.02075,0 2.608648,-1.4199427 2.702122,-1.4826188 0.004,-0.00269 0.261455,-0.9312523 0.572114,-2.0634839 0.310659,-1.1322316 0.586128,-2.1072762 0.612155,-2.1667655 0.06323,-0.144533 0.260747,-0.3137299 0.417457,-0.3576059 0.180776,-0.050614 0.535457,-0.024876 0.678054,0.049205 0.254987,0.1324687 0.41624,0.4019447 0.41707,0.6969832 3.87e-4,0.1372992 -0.07079,0.4145952 -0.358199,1.3955579 -0.197275,0.6733169 -0.354091,1.2288031 -0.34848,1.234414 0.0056,0.00561 0.644753,-0.2957556 1.420316,-0.6697033 1.576805,-0.7602765 1.616611,-0.7744405 1.947193,-0.6928611 0.212792,0.052511 0.408036,0.1758658 0.487892,0.308247 0.127169,0.2108146 0.161392,0.4709731 0.09316,0.708192 -0.07921,0.2753737 -0.135657,0.3134259 -1.722864,1.1613543 -0.80028,0.4275309 -1.43402,0.7824754 -1.411765,0.7907001 0.02221,0.00821 0.624214,0.1550067 1.337784,0.3262184 0.713571,0.1712116 1.329806,0.3317976 1.369412,0.3568566 0.511926,0.323904 0.518026,1.086444 0.01107,1.383542 -0.11352,0.06653 -0.172822,0.08017 -0.389426,0.08957 l -0.255514,0.01109 -2.059041,-0.539445 c -1.132472,-0.296694 -2.081721,-0.539445 -2.109441,-0.539445 -0.04816,0 -2.628566,1.415098 -2.697883,1.479523 -0.02487,0.02311 0.31119,0.22216 1.312941,0.77765 0.740501,0.410621 1.366762,0.745079 1.391691,0.743239 0.02493,-0.0018 0.977871,-0.2487 2.117647,-0.548578 2.256386,-0.593661 2.286445,-0.599343 2.547507,-0.481589 0.412986,0.186281 0.605638,0.568904 0.488802,0.970804 -0.05246,0.180455 -0.225493,0.394639 -0.381544,0.472284 -0.05634,0.02803 -0.680561,0.188321 -1.38715,0.356191 -0.706588,0.167871 -1.293413,0.312756 -1.304055,0.321966 -0.01064,0.0092 0.624003,0.359805 1.410323,0.779099 0.885776,0.472327 1.475844,0.803975 1.551037,0.87176 0.289769,0.26122 0.191273,0.585104 -0.237795,0.781943 -0.0966,0.04432 -0.156039,0.09475 -0.193575,0.164251 -0.104462,0.193415 -0.31408,0.285155 -0.652153,0.285418 l -0.20269,1.69e-4 -1.477299,-0.790588 c -0.812431,-0.434826 -1.486066,-0.79059 -1.496882,-0.79059 -0.01082,0 -0.0021,0.06035 0.01947,0.134117 0.02153,0.07377 0.180281,0.616941 0.35279,1.207059 0.172508,0.590118 0.320905,1.131172 0.329772,1.202343 0.03671,0.294635 -0.144135,0.631041 -0.412355,0.767069 -0.377162,0.191278 -0.924234,0.03449 -1.101631,-0.315721 -0.02807,-0.05542 -0.301884,-1.015585 -0.608478,-2.133703 -0.306595,-1.118118 -0.571768,-2.047722 -0.589275,-2.065788 -0.02633,-0.02717 -2.318483,-1.310103 -2.610491,-1.461106 l -0.08957,-0.04632 1.41e-4,1.518372 1.42e-4,1.518373 1.566284,1.464134 c 1.343836,1.256194 1.576826,1.48568 1.64051,1.615846 0.138835,0.28377 0.135004,0.622688 -0.0097,0.856917 -0.06879,0.111351 -0.110403,0.142267 -0.304419,0.22614 -0.182542,0.07891 -0.261853,0.09747 -0.422388,0.09882 -0.354131,0.003 -0.346695,0.0085 -1.397489,-1.042751 -0.520141,-0.520393 -0.955317,-0.946169 -0.967051,-0.946169 -0.01173,0 -0.02161,0.733764 -0.02196,1.630588 -7e-4,1.841339 0.0099,1.748396 -0.225644,1.983911 -0.232723,0.232723 -0.621044,0.333103 -0.936726,0.242142 z"
   id="path15" /><path
   style="fill:#fffeab;stroke-width:0.0282353"
   d="M 28.122353,17.082353 V 12.084706 H 27.12 26.117647 V 9.1060718 6.1274377 l 1.997647,-0.00725 1.997647,-0.00725 0.01615,-0.7764706 c 0.01537,-0.7386779 0.01988,-0.7888391 0.09272,-1.0305882 0.310528,-1.0305347 1.033194,-1.7792084 2.012917,-2.0853583 0.330017,-0.1031255 0.845021,-0.1695355 1.135539,-0.1464283 1.03231,0.082108 1.981896,0.7216511 2.433338,1.6388454 0.122065,0.2480007 0.172242,0.3947707 0.275109,0.8047059 l 0.0248,0.098824 0.03475,-0.1694118 C 36.269687,3.8063807 36.550268,3.288345 36.997781,2.8601466 37.270877,2.5988375 37.46423,2.4665467 37.815599,2.3005999 39.173524,1.6592713 40.757482,2.1147797 41.585772,3.3848117 41.96779,3.970568 42.098824,4.5102966 42.098824,5.4980829 V 6.0141176 H 44.089412 46.08 V 9.0070588 12 h -1.002353 -1.002353 v 5.04 5.04 h -7.97647 -7.976471 z M 42.127059,16.009412 V 12 h -1.524706 -1.524706 v 2.992941 2.992941 H 36.098824 33.12 V 14.992941 12 h -1.510588 -1.510588 v 4.009412 4.009412 h 6.014117 6.014118 z M 37.101176,12 V 7.9905882 H 36.098824 35.096471 V 12 16.009412 h 1.002353 1.002352 z M 33.12,9.0070588 V 7.9905882 H 30.607059 28.094118 V 9.0070588 10.023529 H 30.607059 33.12 Z m 10.983529,0 V 7.9905882 h -2.512941 -2.512941 v 1.0164706 1.0164702 h 2.512941 2.512941 z M 34.701176,5.9924366 c 0,-0.011924 -0.132151,-0.1533831 -0.29367,-0.3143523 L 34.113835,5.3854128 34.103976,5.0426414 C 34.094755,4.7220397 34.088106,4.687662 34.001167,4.5111201 33.825808,4.1550267 33.548591,3.9986946 33.091765,3.9982771 c -0.234512,-2.146e-4 -0.290366,0.0098 -0.444263,0.07969 -0.222764,0.1011586 -0.401072,0.288045 -0.488208,0.5116962 -0.05969,0.1531949 -0.06653,0.2232915 -0.07779,0.796219 l -0.01234,0.6282352 h 1.316005 c 0.723802,0 1.316004,-0.00976 1.316004,-0.021681 z m 5.421177,-0.5096038 c 0,-0.2922068 -0.01384,-0.6061664 -0.03076,-0.6976883 -0.06174,-0.3339894 -0.243562,-0.569403 -0.548063,-0.7096108 -0.147684,-0.068001 -0.203813,-0.077942 -0.437647,-0.077509 -0.457045,8.471e-4 -0.734131,0.1571819 -0.909402,0.513095 -0.08694,0.1765419 -0.09359,0.2109196 -0.102809,0.5315213 l -0.0099,0.3427714 -0.293671,0.2926715 c -0.161519,0.1609692 -0.29367,0.302428 -0.29367,0.3143523 0,0.011925 0.590823,0.021681 1.312941,0.021681 h 1.312941 z"
   id="path17" /><path
   style="fill:#932178;stroke-width:0.0282353"
   d="m 11.488441,22.521019 c -0.238285,-0.08515 -0.446051,-0.270563 -0.49939,-0.445656 -0.0273,-0.0896 -0.06159,-1.664002 -0.06186,-2.840069 -8.5e-5,-0.344751 -0.01049,-0.543529 -0.02847,-0.543529 -0.01558,0 -0.455171,0.420553 -0.9768561,0.934564 -1.0626158,1.046982 -1.0685755,1.051386 -1.4232602,1.051964 -0.2954357,4.8e-4 -0.5006597,-0.09316 -0.6214266,-0.283552 -0.1622185,-0.25574 -0.2135904,-0.579222 -0.1259819,-0.793295 0.054209,-0.132461 0.7720241,-0.840363 2.1964842,-2.166152 l 1.0617846,-0.988235 0.0011,-1.543692 0.0011,-1.543692 -0.642353,0.355181 c -1.3579349,0.750853 -2.0549731,1.14107 -2.0767456,1.162606 -0.012446,0.01231 -0.2509779,0.853329 -0.5300716,1.868931 -0.279094,1.015601 -0.5467152,1.965288 -0.5947141,2.110415 -0.1015211,0.306954 -0.1900396,0.42253 -0.4036571,0.527043 -0.2035728,0.0996 -0.544508,0.10649 -0.7338474,0.01483 C 5.8795082,19.32565 5.7444769,19.179449 5.667807,19.006124 5.5720445,18.789637 5.6049558,18.606986 5.9686589,17.336471 6.1487024,16.707529 6.2961137,16.169347 6.29624,16.140508 6.2964094,16.102278 6.28318,16.093178 6.247391,16.106908 6.19324,16.127688 4.3665503,17.094032 3.7411755,17.43273 L 3.345881,17.64682 3.111815,17.646933 C 2.9348306,17.647018 2.851276,17.633543 2.7691952,17.591673 2.4292654,17.41826 2.262733,17.005639 2.3777433,16.621769 c 0.069543,-0.232113 0.1793112,-0.304523 1.6853141,-1.11174 1.261005,-0.675897 1.442825,-0.777212 1.442825,-0.803976 0,-0.02953 -0.1561107,-0.07225 -1.0729412,-0.293612 -1.6821584,-0.406139 -1.7146151,-0.417857 -1.9058823,-0.688074 -0.076784,-0.108478 -0.085604,-0.14405 -0.094313,-0.380354 -0.013676,-0.371088 0.090623,-0.587103 0.3599082,-0.745411 0.1123356,-0.06604 0.1599395,-0.07611 0.3555816,-0.07522 0.2004999,9.15e-4 0.4597666,0.06199 2.3072552,0.543529 1.1447551,0.298375 2.104224,0.5425 2.1321529,0.5425 0.065993,0 1.5343833,-0.804793 2.4623752,-1.349575 0.264277,-0.155145 0.265945,-0.156815 0.200939,-0.201082 -0.256693,-0.174797 -2.6054937,-1.481291 -2.6568463,-1.47784 -0.023945,0.0016 -0.8244153,0.206779 -1.7788235,0.455932 -2.3790791,0.621072 -2.427576,0.632296 -2.6670528,0.617295 C 2.6673678,11.624017 2.4054082,11.329032 2.4340201,10.849885 2.4552284,10.494721 2.6024817,10.286097 2.91298,10.171309 2.9957822,10.140698 3.6130589,9.9598721 4.284706,9.7694736 4.956353,9.5790751 5.5058824,9.413206 5.5058824,9.4008754 5.5058824,9.375412 5.2725395,9.2453862 3.7835295,8.4411284 3.2011766,8.1265827 2.6822185,7.8405502 2.6302894,7.8055006 2.4438033,7.6796321 2.3431633,7.4627032 2.3441496,7.188728 2.3449301,6.9719221 2.4102574,6.824299 2.5686014,6.6815247 2.7348182,6.5316514 2.912421,6.4590613 3.1482354,6.4446161 3.344482,6.4325944 3.3485404,6.4338257 3.7209962,6.6183846 3.9273087,6.7206164 4.5244852,7.0317584 5.048055,7.3098113 6.1823797,7.9122187 6.3735335,8.007643 6.3976467,7.9835297 6.4173265,7.96385 6.3919607,7.851997 6.0406733,6.4094118 5.7891996,5.3767187 5.7778075,5.2677059 5.8969537,5.0341596 6.0274784,4.77831 6.2299833,4.6530907 6.5410781,4.6358635 c 0.1841652,-0.010198 0.2172471,-0.00321 0.3698863,0.078147 0.092197,0.049141 0.2204261,0.1431405 0.2849525,0.2088884 0.1368113,0.1394002 0.098799,0.017309 0.8231114,2.6437293 0.2504722,0.9082334 0.4577155,1.6532702 0.4605408,1.6556372 0.014734,0.012343 1.9595809,1.0517156 2.3369769,1.2489356 0.242042,0.126487 0.454865,0.229975 0.472941,0.229975 0.0246,0 0.03259,-0.38154 0.03178,-1.5176464 l -0.0011,-1.517647 -1.07621,-1.0023529 C 8.6755934,5.2027935 8.1974446,4.7315433 8.1111002,4.5614418 8.015234,4.3725824 7.9938065,4.0993028 8.0593836,3.9018689 8.1166408,3.7294832 8.2699596,3.5632297 8.4537058,3.4742797 8.568975,3.4184789 8.6195636,3.4112805 8.821839,3.4218972 c 0.2069317,0.010861 0.2523501,0.023598 0.3863308,0.1083409 0.083822,0.053018 0.564065,0.5046509 1.0721602,1.008289 l 0.92033,0.9122561 0.01849,-0.3439423 c 0.01017,-0.189168 0.01849,-0.933277 0.01849,-1.6535751 0,-1.4803379 -0.01095,-1.4022216 0.230653,-1.6448518 0.190931,-0.1917398 0.35426,-0.2548667 0.660274,-0.2551969 0.218626,-2.358e-4 0.276827,0.010286 0.402038,0.072681 0.205313,0.1023116 0.362395,0.288731 0.398393,0.4727984 0.01571,0.080305 0.03723,0.8673298 0.04783,1.7489438 l 0.01928,1.6029345 0.949003,-0.9406664 c 1.05772,-1.0484287 1.116559,-1.093438 1.429422,-1.093438 0.279145,0 0.440334,0.062577 0.590015,0.2290577 0.210648,0.234292 0.279842,0.6260875 0.157987,0.8945774 -0.04005,0.088254 -0.462793,0.5310172 -1.552321,1.6258503 l -1.497277,1.5045685 v 1.5153258 c 0,1.1712589 0.0078,1.5153259 0.03435,1.5153259 0.05767,0 2.632416,-1.411509 2.693897,-1.4768265 0.01748,-0.018569 0.199531,-0.6436439 0.404563,-1.3890556 0.747379,-2.7171617 0.787452,-2.8505277 0.893843,-2.9748218 0.143594,-0.1677574 0.294979,-0.2298841 0.56016,-0.2298841 0.121413,0 0.269969,0.014746 0.330123,0.032769 0.224489,0.067258 0.439328,0.3302713 0.487893,0.5972944 0.02777,0.1526768 -0.0042,0.2887037 -0.371485,1.5793773 -0.180074,0.6328391 -0.320155,1.1578682 -0.311292,1.166731 0.0089,0.00886 0.554144,-0.2406859 1.211736,-0.5545528 1.485763,-0.7091503 1.739773,-0.8163086 1.935812,-0.8166536 0.3172,-5.591e-4 0.622445,0.1705595 0.732304,0.4105225 0.09575,0.2091433 0.111941,0.390288 0.05301,0.5930123 -0.07934,0.2729142 -0.161427,0.3309304 -1.454914,1.0282622 -1.067435,0.5754652 -1.665882,0.9114757 -1.665882,0.9353433 0,0.028075 -0.04468,0.016067 0.988235,0.2656142 1.119099,0.2703692 1.63123,0.4050152 1.726048,0.4537982 0.04086,0.02102 0.10817,0.07849 0.149585,0.127709 0.333112,0.39588 0.265101,0.961823 -0.144426,1.201821 -0.10471,0.06136 -0.187845,0.0836 -0.373361,0.09987 l -0.238656,0.02093 -1.61136,-0.420717 c -2.255243,-0.58883 -2.533037,-0.656762 -2.617044,-0.639974 -0.112886,0.02256 -2.556116,1.35578 -2.649501,1.445779 -0.03583,0.03453 -0.03403,0.0448 0.01412,0.08051 0.144593,0.107246 1.226777,0.718136 2.171191,1.225631 0.37376,0.200846 0.494151,0.253223 0.550588,0.23954 0.03973,-0.0096 0.529643,-0.136595 1.088701,-0.282142 3.273755,-0.852293 3.279169,-0.853392 3.549032,-0.720467 0.159228,0.07843 0.335891,0.248977 0.407846,0.393728 0.03804,0.07652 0.05253,0.168015 0.05253,0.331565 0,0.195432 -0.01044,0.243643 -0.07745,0.35763 -0.0426,0.07246 -0.129465,0.176272 -0.193041,0.23069 -0.110695,0.09475 -0.173219,0.113181 -1.475493,0.434933 l -1.3599,0.335989 0.114642,0.07264 c 0.06305,0.03996 0.577641,0.32301 1.143529,0.629011 1.636548,0.884956 1.74613,0.950457 1.83562,1.09722 0.133525,0.218978 0.01845,0.432579 -0.337367,0.626242 -0.07672,0.04176 -0.174391,0.12736 -0.221397,0.194049 -0.108642,0.154131 -0.246428,0.217232 -0.543839,0.249059 l -0.2406,0.02575 -1.482353,-0.792468 c -0.815294,-0.435857 -1.498235,-0.792478 -1.517647,-0.79249 -0.01941,-1.3e-5 -0.03529,0.01093 -0.03529,0.02431 0,0.01338 0.07088,0.264324 0.157504,0.557647 0.384784,1.302896 0.548362,1.916966 0.547758,2.056271 -0.0012,0.267515 -0.171344,0.536226 -0.415159,0.655513 -0.191693,0.09379 -0.42887,0.103126 -0.655514,0.02581 -0.19353,-0.06602 -0.401982,-0.265442 -0.445403,-0.426111 -0.03727,-0.137942 -0.670805,-2.394634 -0.94308,-3.359349 C 15.41653,15.24 15.314576,14.907506 15.299539,14.88936 c -0.03328,-0.04016 -0.246583,-0.162277 -1.602787,-0.917599 -0.580905,-0.323527 -1.066905,-0.588232 -1.08,-0.588232 -0.0131,0 -0.02339,0.689295 -0.02288,1.531765 l 9.35e-4,1.531765 1.076512,1.002353 c 1.651624,1.537846 2.064474,1.947507 2.1412,2.124666 0.09725,0.22454 0.09262,0.495798 -0.01211,0.709854 -0.07574,0.154814 -0.0931,0.170579 -0.291404,0.264755 -0.163489,0.07764 -0.257349,0.103123 -0.417759,0.113417 -0.333163,0.02138 -0.34865,0.01 -1.417497,-1.044317 -0.516345,-0.509312 -0.951702,-0.926022 -0.967458,-0.926022 -0.01847,0 -0.02969,0.23325 -0.03157,0.65647 -0.0016,0.361059 -0.01114,1.11598 -0.02118,1.677603 l -0.01826,1.021133 -0.08471,0.119898 c -0.219519,0.310723 -0.718291,0.477027 -1.062147,0.35415 z"
   id="path12" /><path
   style="fill:#932178;stroke-width:0.0282353"
   d="M 28.122353,17.082353 V 12.084706 H 27.12 26.117647 V 9.1058824 6.1270589 h 2.004706 2.004706 l 0.0015,-0.2611765 c 8.33e-4,-0.143647 0.01215,-0.5089412 0.02516,-0.8117647 0.0207,-0.4818932 0.03323,-0.5805322 0.100456,-0.7905882 0.353932,-1.1059352 1.191173,-1.8714687 2.306121,-2.1086087 0.355995,-0.075717 0.982157,-0.06967 1.28289,0.01239 1.095549,0.2989386 1.873918,1.077488 2.173318,2.1738241 0.04828,0.1767729 0.08774,0.2756531 0.10141,0.2541176 0.01231,-0.019389 0.02258,-0.056067 0.02282,-0.081506 9.6e-4,-0.1026613 0.15022,-0.5607738 0.253608,-0.7783792 0.159081,-0.3348241 0.316093,-0.5547757 0.591265,-0.8282823 0.277046,-0.2753693 0.421418,-0.3808885 0.737787,-0.5392362 0.456414,-0.2284427 0.891407,-0.3349079 1.368359,-0.3349079 1.100452,0 2.092452,0.6108274 2.626014,1.6169757 0.254916,0.4807015 0.335638,0.8771091 0.367874,1.8065536 l 0.01934,0.5576471 H 44.092496 46.08 V 9.0070589 12 h -1.002353 -1.002353 v 5.04 5.04 h -7.976471 -7.97647 z M 42.127059,16.009412 V 12 h -1.524706 -1.524706 v 2.992941 2.992941 H 36.098823 33.12 V 14.992941 12 h -1.510588 -1.510589 v 4.009412 4.009411 h 6.014118 6.014118 z M 37.101176,12 V 7.9905883 H 36.098823 35.09647 V 12 16.009412 h 1.002353 1.002353 z M 33.12,9.0070589 V 7.9905883 H 30.607059 28.094117 V 9.0070589 10.023529 H 30.607059 33.12 Z m 10.983529,0 V 7.9905883 h -2.512941 -2.512941 v 1.0164706 1.0164701 h 2.512941 2.512941 z M 34.701176,5.9817891 c 0,-0.017781 -0.127173,-0.1615632 -0.282608,-0.3195165 L 34.13596,5.3750844 34.111949,5.0068919 C 34.090781,4.6822804 34.07854,4.6214313 34.008536,4.4928095 33.853055,4.2071406 33.667543,4.0704421 33.350771,4.008121 32.827548,3.9051832 32.363027,4.1111984 32.170593,4.5315305 32.096986,4.6923095 32.087178,4.7862251 32.0622,5.5694118 l -0.01418,0.4447059 h 1.326579 c 0.977539,0 1.326579,-0.00851 1.326579,-0.032329 z m 5.41536,-0.6100243 C 40.107679,4.7811931 40.101697,4.7163903 40.042317,4.5678783 39.866276,4.1275835 39.385033,3.902245 38.846876,4.008121 c -0.31881,0.062722 -0.502913,0.1974295 -0.655552,0.4796658 -0.0725,0.1340632 -0.0843,0.1920217 -0.105627,0.5191051 l -0.02401,0.3681925 -0.282608,0.2871882 c -0.155435,0.1579533 -0.282609,0.3017359 -0.282609,0.3195165 0,0.023818 0.346121,0.032329 1.31485,0.032329 h 1.31485 z"
   id="path14" /></svg>
