<?xml version="1.0" encoding="UTF-8" standalone="no"?>
<svg
   xmlns:dc="http://purl.org/dc/elements/1.1/"
   xmlns:cc="http://creativecommons.org/ns#"
   xmlns:rdf="http://www.w3.org/1999/02/22-rdf-syntax-ns#"
   xmlns:svg="http://www.w3.org/2000/svg"
   xmlns="http://www.w3.org/2000/svg"
   xmlns:sodipodi="http://sodipodi.sourceforge.net/DTD/sodipodi-0.dtd"
   xmlns:inkscape="http://www.inkscape.org/namespaces/inkscape"
   id="ic_error_sync"
   width="24"
   height="24"
   viewBox="0 0 24 24"
   shape-rendering="geometricPrecision"
   version="1.1"
   sodipodi:docname="ic-check-sync-off.svg"
   inkscape:version="1.0.2-2 (e86c870879, 2021-01-15)">
  <metadata
     id="metadata19">
    <rdf:RDF>
      <cc:Work
         rdf:about="">
        <dc:format>image/svg+xml</dc:format>
        <dc:type
           rdf:resource="http://purl.org/dc/dcmitype/StillImage" />
      </cc:Work>
    </rdf:RDF>
  </metadata>
  <sodipodi:namedview
     pagecolor="#ffffff"
     bordercolor="#666666"
     borderopacity="1"
     objecttolerance="10"
     gridtolerance="10"
     guidetolerance="10"
     inkscape:pageopacity="0"
     inkscape:pageshadow="2"
     inkscape:window-width="1920"
     inkscape:window-height="1017"
     id="namedview17"
     showgrid="false"
     inkscape:zoom="35.416667"
     inkscape:cx="12"
     inkscape:cy="12"
     inkscape:window-x="-8"
     inkscape:window-y="-8"
     inkscape:window-maximized="1"
     inkscape:current-layer="ic_error_sync" />
  <defs
     id="defs4">
    <style
       type="text/css"
       id="style2">
            .cls-1{fill:#7c7687}.cls-2{fill:none}
        </style>
  </defs>
  <g
     id="Group_8889"
     data-name="Group 8889">
    <g
       id="Group_8887"
       data-name="Group 8887">
      <path
         id="Path_18905"
         d="M19.611 16.782A8.933 8.933 0 0 0 21 12h-2a6.95 6.95 0 0 1-.844 3.328z"
         class="cls-1"
         data-name="Path 18905" />
      <path
         id="Path_18906"
         d="M15.328 18.156A6.993 6.993 0 0 1 6.257 16H9v-2H3v6h2v-2.372a8.942 8.942 0 0 0 11.782 1.983z"
         class="cls-1"
         data-name="Path 18906" />
    </g>
    <g
       id="Group_8888"
       data-name="Group 8888">
      <path
         id="Path_18907"
         d="M8.672 5.844A7 7 0 0 1 17.745 8H15v2h6V4h-2v2.37A8.944 8.944 0 0 0 7.218 4.389z"
         class="cls-1"
         data-name="Path 18907" />
      <path
         id="Path_18908"
         d="M4.389 7.218A8.933 8.933 0 0 0 3 12h2a6.95 6.95 0 0 1 .844-3.328z"
         class="cls-1"
         data-name="Path 18908" />
    </g>
  </g>
  <g
     id="Group_8890"
     data-name="Group 8890">
    <path
       id="Rectangle_4442"
       d="M0 0h2v22.627H0z"
       class="cls-1"
       data-name="Rectangle 4442"
       transform="rotate(-45 7.328 -1.622)" />
  </g>
  <path
     id="Rectangle_4443"
     d="M0 0h24v24H0z"
     class="cls-2"
     data-name="Rectangle 4443" />
  <path
     style="fill:#932178;stroke-width:0.0282353"
     d="m 3.0211765,11.748874 c 0,-0.890468 0.2566023,-2.1196989 0.6430844,-3.0806387 C 3.8629671,8.174177 4.3417967,7.2558666 4.400243,7.2567521 c 0.010219,1.548e-4 0.3354677,0.3171708 0.7227743,0.70448 L 5.827211,8.6654307 5.6543325,9.026833 C 5.269259,9.831828 5.0426395,10.730451 5.0060108,11.597647 L 4.9890162,12 H 4.0050963 3.0211765 Z"
     id="path21" />
  <path
     style="fill:#932178;stroke-width:0.0282353"
     d="M 11.294144,12.691791 3.3177371,4.7153467 4.0165482,4.0165356 l 0.698811,-0.698811 7.9833858,7.9833854 7.983385,7.983386 -0.691437,0.69187 c -0.38029,0.380528 -0.697896,0.691869 -0.70579,0.691869 -0.0079,0 -3.603735,-3.5894 -7.990759,-7.976444 z"
     id="path23" />
  <path
     style="fill:#932178;stroke-width:0.0282353"
     d="M 15.021176,9.0070588 V 8.0188235 h 1.369412 c 0.753177,0 1.369412,-0.0071 1.369412,-0.015785 0,-0.00868 -0.07911,-0.119858 -0.175807,-0.2470589 C 16.402851,6.2019253 14.650527,5.2251139 12.681669,5.0231295 12.211003,4.974844 11.285444,5.0044409 10.845978,5.0818301 10.178093,5.1994433 9.4709266,5.427712 8.9266059,5.7013911 8.6994806,5.8155874 8.6922538,5.8172194 8.6314148,5.7680502 8.5418145,5.6956365 7.2806881,4.4135404 7.2751875,4.3892719 7.2675213,4.3554487 7.9252651,3.9918372 8.3011765,3.8220884 9.499076,3.2811578 10.699738,3.0211765 12,3.0211765 c 2.3932,0 4.638216,0.9317012 6.324706,2.6248081 0.194118,0.1948793 0.422823,0.4412071 0.508235,0.5473953 l 0.155294,0.1930695 0.0074,-1.1885188 0.0074,-1.1885188 h 0.987929 0.987929 V 7.0023529 9.9952941 H 18 15.021176 Z"
     id="path25" />
  <path
     style="fill:#932178;stroke-width:0.0282353"
     d="m 18.910965,16.044541 c -0.384146,-0.384262 -0.705173,-0.706274 -0.713394,-0.715582 -0.0082,-0.0093 0.06069,-0.174484 0.153128,-0.367059 0.378848,-0.789224 0.606829,-1.696322 0.64329,-2.559547 L 19.010984,12 h 0.98392 0.98392 v 0.251126 c 0,1.117028 -0.378788,2.628619 -0.938146,3.743767 -0.07793,0.15536 -0.416361,0.748857 -0.426803,0.748472 -0.0025,-8.5e-5 -0.318764,-0.314562 -0.70291,-0.698824 z"
     id="path27" />
  <path
     style="fill:#932178;stroke-width:0.0282353"
     d="M 11.04,20.934226 C 9.3552099,20.751335 7.7122933,20.065744 6.3670588,18.984203 c -0.3472122,-0.279152 -0.9632628,-0.883805 -1.2,-1.177799 l -0.1552941,-0.192853 -0.00737,1.188519 -0.00737,1.188518 H 4.0091053 3.0211765 V 16.997647 14.004706 H 6 8.9788235 v 0.988235 0.988235 H 7.6094118 c -0.7531765,0 -1.3694118,0.0071 -1.3694118,0.01579 0,0.0087 0.074433,0.113505 0.1654074,0.232941 1.1695356,1.535437 2.8509208,2.497465 4.7757686,2.732523 0.523735,0.06396 1.479562,0.0434 1.962353,-0.04221 0.678385,-0.120294 1.273826,-0.308626 1.856431,-0.587168 l 0.331726,-0.158598 0.705922,0.709882 c 0.388257,0.390435 0.705921,0.715484 0.705921,0.722332 0,0.0068 -0.147124,0.09788 -0.326944,0.202304 -0.828734,0.48124 -1.91214,0.873853 -2.877761,1.042865 -0.727457,0.127326 -1.768673,0.16166 -2.498824,0.0824 z"
     id="path29" />
</svg>
