<?xml version="1.0" encoding="UTF-8" standalone="no"?>
<svg
   xmlns:dc="http://purl.org/dc/elements/1.1/"
   xmlns:cc="http://creativecommons.org/ns#"
   xmlns:rdf="http://www.w3.org/1999/02/22-rdf-syntax-ns#"
   xmlns:svg="http://www.w3.org/2000/svg"
   xmlns="http://www.w3.org/2000/svg"
   xmlns:sodipodi="http://sodipodi.sourceforge.net/DTD/sodipodi-0.dtd"
   xmlns:inkscape="http://www.inkscape.org/namespaces/inkscape"
   id="ic_unlocked"
   width="24"
   height="24"
   viewBox="0 0 24 24"
   shape-rendering="geometricPrecision"
   version="1.1"
   sodipodi:docname="ic-check-locked-off.svg"
   inkscape:version="1.0.2-2 (e86c870879, 2021-01-15)">
  <metadata
     id="metadata11">
    <rdf:RDF>
      <cc:Work
         rdf:about="">
        <dc:format>image/svg+xml</dc:format>
        <dc:type
           rdf:resource="http://purl.org/dc/dcmitype/StillImage" />
      </cc:Work>
    </rdf:RDF>
  </metadata>
  <sodipodi:namedview
     pagecolor="#ffffff"
     bordercolor="#666666"
     borderopacity="1"
     objecttolerance="10"
     gridtolerance="10"
     guidetolerance="10"
     inkscape:pageopacity="0"
     inkscape:pageshadow="2"
     inkscape:window-width="1920"
     inkscape:window-height="1017"
     id="namedview9"
     showgrid="false"
     inkscape:zoom="35.416667"
     inkscape:cx="12"
     inkscape:cy="12"
     inkscape:window-x="-8"
     inkscape:window-y="-8"
     inkscape:window-maximized="1"
     inkscape:current-layer="ic_unlocked" />
  <defs
     id="defs4">
    <style
       type="text/css"
       id="style2">
            .cls-1{fill:#7c7687}.cls-2{fill:none}
        </style>
  </defs>
  <path
     id="Path_18909"
     d="M8 10V8a4 4 0 0 1 6.827-2.83l1.412-1.416A6 6 0 0 0 6 8v2H4v12h16V10zm10 10H6v-8h12z"
     class="cls-1"
     data-name="Path 18909" />
  <path
     id="Rectangle_4444"
     d="M0 0h24v24H0z"
     class="cls-2"
     data-name="Rectangle 4444" />
  <path
     style="fill:#932178;stroke-width:0.0282353"
     d="M 4.0094118,16.009412 V 10.023529 H 5.0117647 6.0141176 V 8.8688739 c 0,-1.5455173 0.044338,-1.9388123 0.309218,-2.7429163 0.6698282,-2.0334128 2.3976596,-3.5687023 4.4907824,-3.9903495 0.620159,-0.1249274 1.442706,-0.1503607 2.018823,-0.062422 1.228118,0.1874595 2.320914,0.7070305 3.232941,1.5371062 l 0.155294,0.1413399 -0.696398,0.6981589 -0.6964,0.698159 L 14.649483,4.985574 C 14.153481,4.5353711 13.409173,4.1761184 12.705882,4.0474611 12.30618,3.974341 11.596368,3.9810412 11.21821,4.0615038 10.386221,4.2385302 9.6753911,4.6317239 9.100828,5.2327276 8.5755256,5.7822034 8.2437272,6.409235 8.0673018,7.1858824 8.0148299,7.4168694 8.0085278,7.5575808 7.9980638,8.7317647 L 7.986552,10.023529 h 6.002018 6.002018 v 5.985883 5.985882 H 12 4.0094118 Z m 14.0047062,0 V 12 H 12 5.9858824 v 4.009412 4.009412 H 12 18.014118 Z"
     id="path13" />
</svg>
