<?xml version="1.0" encoding="UTF-8" standalone="no"?>
<svg
   xmlns:dc="http://purl.org/dc/elements/1.1/"
   xmlns:cc="http://creativecommons.org/ns#"
   xmlns:rdf="http://www.w3.org/1999/02/22-rdf-syntax-ns#"
   xmlns:svg="http://www.w3.org/2000/svg"
   xmlns="http://www.w3.org/2000/svg"
   xmlns:sodipodi="http://sodipodi.sourceforge.net/DTD/sodipodi-0.dtd"
   xmlns:inkscape="http://www.inkscape.org/namespaces/inkscape"
   version="1.1"
   id="ic-transaction-staked"
   x="0px"
   y="0px"
   viewBox="0 0 24 24"
   style="enable-background:new 0 0 24 24;"
   xml:space="preserve"
   sodipodi:docname="ic-check-tor.svg"
   inkscape:version="1.0.2-2 (e86c870879, 2021-01-15)"><metadata
   id="metadata18"><rdf:RDF><cc:Work
       rdf:about=""><dc:format>image/svg+xml</dc:format><dc:type
         rdf:resource="http://purl.org/dc/dcmitype/StillImage" /><dc:title></dc:title></cc:Work></rdf:RDF></metadata><defs
   id="defs16" /><sodipodi:namedview
   pagecolor="#ffffff"
   bordercolor="#666666"
   borderopacity="1"
   objecttolerance="10"
   gridtolerance="10"
   guidetolerance="10"
   inkscape:pageopacity="0"
   inkscape:pageshadow="2"
   inkscape:window-width="1920"
   inkscape:window-height="1017"
   id="namedview14"
   showgrid="false"
   inkscape:zoom="35.416667"
   inkscape:cx="12"
   inkscape:cy="12"
   inkscape:window-x="-8"
   inkscape:window-y="-8"
   inkscape:window-maximized="1"
   inkscape:current-layer="ic-transaction-staked" />
<style
   type="text/css"
   id="style2">
	.st0{fill:none;}
	.st1{fill:#932178;}
</style>
<path
   id="Rectangle_4527"
   class="st0"
   d="M0,0h24v24H0V0z" />
<g
   id="g11">
	<g
   id="g9">
		<path
   class="st1"
   d="M16.5,12c-0.7-0.6-1.6-1.1-2.5-1.6c-0.4-0.2-1.6-1.2-1.2-2.6l-0.9-0.1c1.2-1.9,2.9-3.9,4.9-5.7    c-1.6,0.5-2.9,1.3-4,2.8c0.6-1.3,1.6-2.5,2.7-3.8c-1.5,1-2.8,2.3-3.6,3.9l0.6-2.3c-0.9,1.5-1.5,3.1-1.7,4.7L9.7,6.5L9.5,6.7    c1,1.9,0.5,2.9,0,3.2c-1,0.7-2.6,1.6-3.3,2.4c-1.5,1.5-1.9,2.9-1.7,4.8c0.1,2.4,1.9,4.4,4.2,5.2c1,0.3,2,0.4,3,0.4    c1.7,0,3.4-0.5,4.7-1.5c1.3-1.1,2.1-2.8,2.1-4.6C18.5,14.9,17.8,13.2,16.5,12z M9.9,7L9.9,7L9.9,7L9.9,7z M13.6,20.7    c-0.3,0.7-0.9,1.4-1.3,1.7c-0.2,0-0.5,0-0.7,0c-0.6,0-1.3-0.1-1.9-0.2c-0.7-0.2-1.2-0.5-1.6-1L8,21.1c-0.7-0.8-1.5-2.1-1.9-3.3    c-0.1-0.4-0.2-0.8,0-1.3c0.6-2,1.8-2.7,3-3.6c0.3-0.2,0.6-0.3,0.9-0.5c0.5-0.4,0.8-1.5,1.1-2.4c-0.1,0.7-0.3,2.1-1,2.6    c-0.3,0.2-0.6,0.4-0.9,0.6C8,14,6.8,14.7,6.3,16.6c-0.1,0.4,0,0.8,0.1,1.2c0.3,1.2,1.1,2.4,1.8,3.1L8.3,21c0.4,0.5,0.6,0.7,1.6,1    c-0.2-0.1-0.4-0.2-0.6-0.4c-1.1-0.8-1.7-1.8-1.8-3.2c-0.1-1.1,0.6-2.3,2-3c0.9-0.5,1.2-1.2,1.5-2.1c-0.2,1-0.4,1.7-1.4,2.2    c-1.1,0.7-2,2-1.9,2.9c0.1,1.1,0.9,2.3,1.7,3.1c0.4,0.4,1.1,0.6,1.8,0.7l0,0c-0.2-0.1-0.5-0.3-0.7-0.6c-0.2-0.2-0.3-0.6-0.4-0.9    c-0.1-0.4-0.3-0.7-0.3-1c0-0.7,0.1-1.5,0.6-2.1c0.4-0.5,0.6-0.6,0.8-1.1c0-1.7,0-3.2,0-4.5c0-1.4,0-2.5,0-3.2s0-1.1,0-1.1h0.1    c0,0.2,0,0.7,0,1.5s0,1.9,0,3.3s0,3,0,4.7c0,1.2,0,2.4,0,3.7c0,0.4,0,0.8,0,1.1l0,0c0.3-0.5,0.4-1.5,0.5-2.1c0-0.5,0.1-1,0-1.6    c-0.1-0.7-0.3-1.5-0.3-2c0.1,0.5,0.4,1.3,0.5,2c0.1,0.6,0.1,1.1,0.1,1.6S12,20.8,12,21.2c-0.1,0.3-0.3,0.7-0.6,1l0,0l0,0l0,0l0,0    l0,0l0,0c0.6-0.4,1-1.1,1.1-1.9c0.2-1,0.2-1.9,0.2-2.4c0-0.4-0.2-1.1-0.4-1.7c-0.1-0.5-0.6-1-0.7-1.3c-0.2-0.6-0.1-1-0.1-1.9    c0.1,0.8,0.1,1.4,0.3,1.7s0.4,0.7,0.6,1.2c0.3,0.8,0.5,1.7,0.5,2.1c0,0.7-0.1,1.8-0.3,2.6c-0.1,0.3-0.2,0.5-0.3,0.8    c0.2-0.4,0.4-0.9,0.5-1.3c0.3-1.5,0.6-3,0.4-3.9c0-0.2-0.1-0.9-0.4-1.7c-0.4-1.1-1-2-1.1-2.2c-0.2-0.6-0.3-2.2-0.3-3    c0,1,0.2,2.5,0.4,2.8c0.1,0.2,0.7,1.2,1.2,2.3c0.3,0.7,0.4,1.4,0.4,1.6c0.2,2,0,2.8-0.5,4.6c-0.1,0.4-0.4,0.8-0.6,1.2    c0.5-0.5,0.9-1.2,1-1.7c0.5-2.2,0.7-5.1,0-7.3c-0.4-1.1-1.3-2.1-1.5-2.8c-0.2-0.6-0.1-0.9-0.1-1.8c0,1,0.3,1.7,0.4,2.1    c0.1,0.2,0.9,1.2,1.3,2.3c0.3,0.7,0.6,2.5,0.6,2.6C14.3,17.2,14.2,19.1,13.6,20.7z"
   id="path5" />
		<path
   class="st1"
   d="M11.2,16.5c-0.1,0.6-0.2,0.7-0.6,1.2c-0.5,0.8-0.6,1.5-0.5,2c0,0.3,0.2,0.6,0.3,0.8c0.1,0.3,0.3,0.6,0.5,0.9    c0.1,0.2,0.2,0.3,0.4,0.4c0-1.7,0-3.5,0-5.1C11.2,16.7,11.2,16.6,11.2,16.5z"
   id="path7" />
	</g>
</g>
<path
   style="fill:#fffeaf;stroke:#fffeaf;stroke-width:0.0282353"
   d="M 10.588235,22.641587 C 10.1894,22.601745 9.6370385,22.513472 9.2655662,22.43021 7.2308284,21.974146 5.4404595,20.412611 4.7872855,18.524315 4.6311301,18.072877 4.5524105,17.629125 4.4989309,16.898824 4.4589504,16.352862 4.4566273,16.181944 4.4843477,15.825882 4.5918294,14.445309 5.0829829,13.460529 6.258897,12.267849 6.7427157,11.777133 7.0546901,11.542278 8.4732463,10.600885 9.278631,10.06641 9.7041205,9.7669463 9.7613221,9.6943254 9.9820735,9.4140675 10.078949,9.0919409 10.079583,8.6360603 10.080283,8.1311805 9.940861,7.5862328 9.6568241,6.9836708 l -0.1352479,-0.2869172 0.090191,-0.087417 0.090191,-0.087417 0.5431548,0.395511 c 0.298735,0.2175309 0.548192,0.3955107 0.554349,0.3955107 0.0062,0 0.01961,-0.060353 0.02989,-0.1341177 0.144869,-1.039185 0.500095,-2.2069468 0.994175,-3.2682353 0.18952,-0.4070887 0.572669,-1.1238015 0.590985,-1.1054857 0.0072,0.0072 -0.108838,0.4798674 -0.257854,1.0503814 -0.149015,0.5705139 -0.266141,1.0420939 -0.26028,1.047955 0.0059,0.00586 0.08947,-0.131653 0.185805,-0.3055875 0.228197,-0.4120298 0.536548,-0.8712299 0.842512,-1.2546786 0.328946,-0.4122527 1.013119,-1.1082219 1.447068,-1.4720192 0.383509,-0.3215116 0.926864,-0.7278186 0.946737,-0.7079458 0.0068,0.00682 -0.09943,0.1449412 -0.236098,0.3069453 -0.789346,0.9356672 -1.423797,1.7855864 -1.81686,2.4338907 -0.241899,0.3989783 -0.486808,0.8652805 -0.465599,0.88649 0.0071,0.00708 0.112702,-0.1114207 0.234704,-0.2633449 0.687982,-0.856717 1.495238,-1.5113874 2.442901,-1.9811504 0.344807,-0.170923 0.902767,-0.3986015 1.153038,-0.4705027 0.04507,-0.012948 -0.07231,0.1148832 -0.324706,0.3536168 -1.611588,1.5243507 -3.042725,3.1920328 -4.107574,4.7864943 -0.172886,0.2588719 -0.30766,0.477354 -0.299498,0.485516 0.0082,0.00816 0.202622,0.035546 0.432133,0.060853 l 0.417292,0.046013 -0.008,0.098338 c -0.0044,0.054086 -0.01059,0.2571622 -0.01372,0.4512799 -0.0049,0.3009828 0.004,0.3840113 0.06018,0.5639937 0.120565,0.3862956 0.302176,0.688121 0.608231,1.0108394 0.26169,0.275938 0.35101,0.337783 1.12569,0.779422 1.165749,0.664585 1.774698,1.093063 2.234979,1.57261 0.894854,0.93231 1.46665,2.116261 1.669418,3.456664 0.05805,0.383762 0.06665,1.221355 0.01637,1.595295 -0.191095,1.421289 -0.839548,2.708851 -1.841604,3.656668 -0.634814,0.600454 -1.710349,1.147188 -2.804974,1.425873 -0.765348,0.194852 -1.072775,0.230708 -2.063016,0.240615 -0.481412,0.0048 -0.996,-0.0033 -1.14353,-0.01804 z m 1.886244,-0.370999 c 0.580655,-0.518436 1.073101,-1.283123 1.286452,-1.997647 0.486733,-1.630093 0.542746,-3.468363 0.170348,-5.590588 -0.219845,-1.252852 -0.444768,-2.024076 -0.794646,-2.724706 -0.184913,-0.370287 -0.314852,-0.589013 -0.688674,-1.159241 -0.325307,-0.496224 -0.337212,-0.519958 -0.446106,-0.8894114 -0.181444,-0.6156045 -0.260458,-1.0433232 -0.2918,-1.5795828 -0.0041,-0.069882 -0.01833,0.1118637 -0.03165,0.4038802 -0.04833,1.0594122 0.03624,1.338958 0.749136,2.47612 0.602923,0.961743 0.796655,1.353097 0.950461,1.92 0.443262,1.633795 0.474748,3.799282 0.08785,6.042353 -0.194939,1.130182 -0.290783,1.410894 -0.684221,2.00398 -0.147894,0.222941 -0.334121,0.457649 -0.350289,0.441481 -0.0053,-0.0053 0.06238,-0.134336 0.150386,-0.286763 0.233695,-0.404766 0.274624,-0.511317 0.462872,-1.204992 0.184928,-0.68144 0.343347,-1.423429 0.399544,-1.871353 0.04818,-0.384034 0.04105,-1.528329 -0.01311,-2.10353 -0.06151,-0.653279 -0.15919,-1.089213 -0.361766,-1.61451 C 12.951108,14.229662 12.466609,13.265192 12.091917,12.590495 11.75442,11.982774 11.73928,11.95033 11.676787,11.700881 11.5753,11.295787 11.439062,10.262451 11.43248,9.8478618 11.430932,9.7503614 11.419812,9.6388235 11.40777,9.6 c -0.04067,-0.1311202 0.03208,1.117653 0.100341,1.722353 0.02367,0.209647 0.06843,0.508235 0.09949,0.663529 0.05162,0.258166 0.07796,0.319843 0.307449,0.72 0.46345,0.808112 0.820498,1.596768 1.019222,2.251285 0.253469,0.834821 0.357705,1.783524 0.282172,2.568171 -0.06913,0.718184 -0.393388,2.517262 -0.510636,2.833209 -0.06321,0.170331 -0.06381,0.178008 0.02765,-0.353841 0.15683,-0.911973 0.212238,-1.972107 0.12919,-2.47181 -0.156346,-0.940736 -0.528623,-1.977857 -0.979371,-2.728418 -0.178517,-0.297257 -0.2306,-0.505605 -0.306333,-1.225412 -0.03331,-0.316596 -0.06413,-0.579198 -0.0685,-0.583561 -0.01347,-0.01347 -0.04468,0.695706 -0.0448,1.01791 -2.26e-4,0.610155 0.0743,0.870534 0.383993,1.341487 0.301576,0.458614 0.361604,0.583929 0.502873,1.049804 0.322831,1.064624 0.338013,1.162186 0.318548,2.047059 -0.01589,0.722199 -0.0533,1.108198 -0.175549,1.811123 -0.107038,0.615469 -0.274069,1.037109 -0.553789,1.39795 -0.24415,0.314956 -0.462211,0.500569 -0.26408,0.224786 0.1456,-0.202665 0.325095,-0.603735 0.339452,-0.758486 0.0068,-0.07381 0.03351,-0.349725 0.05924,-0.613149 0.03559,-0.364315 0.04276,-0.627881 0.02995,-1.101176 -0.02531,-0.935121 -0.08003,-1.244549 -0.474535,-2.683401 -0.197744,-0.721215 -0.182128,-0.32857 0.03425,0.86114 0.167877,0.923038 0.181979,1.100767 0.143445,1.80778 -0.04844,0.888715 -0.248197,2.015949 -0.425189,2.399315 l -0.05866,0.127059 -6.21e-4,-7.122353 L 11.322353,7.68 h -0.07059 -0.07059 v 4.419948 4.419949 l -0.05985,0.118875 c -0.08826,0.175294 -0.213929,0.343677 -0.5348,0.716552 -0.158122,0.183748 -0.341654,0.426597 -0.40785,0.539664 -0.2404965,0.410781 -0.3810289,1.017167 -0.3810289,1.644107 v 0.31773 l 0.2292889,0.680999 c 0.126109,0.37455 0.264847,0.750882 0.308308,0.836294 0.115239,0.226476 0.326517,0.474281 0.541199,0.634764 0.10348,0.07736 0.184315,0.144478 0.179632,0.149161 -0.01659,0.01659 -0.563416,-0.112075 -0.775221,-0.182411 C 9.8561455,21.834594 9.6409268,21.700636 9.3169914,21.375695 8.238524,20.293881 7.5469742,18.770498 7.7478779,17.919168 7.8877827,17.326319 8.238423,16.750085 8.808611,16.175982 9.1364281,15.845914 9.4015536,15.638429 9.7781523,15.417226 10.076029,15.242262 10.370471,14.97227 10.52936,14.728396 c 0.19206,-0.294785 0.352889,-0.756077 0.468885,-1.344867 0.03327,-0.168883 -0.02829,-0.05972 -0.124439,0.220669 -0.325755,0.949935 -0.705134,1.399606 -1.6126295,1.911414 -1.0551645,0.595091 -1.7202483,1.545503 -1.771045,2.530844 -0.044421,0.861671 0.2385826,1.820005 0.7492187,2.537073 0.2487191,0.349268 0.8156273,0.887607 1.2711157,1.207059 0.1707368,0.119745 0.1067681,0.114851 -0.2069365,-0.01583 C 8.9594504,21.631424 8.7578157,21.491514 8.5328352,21.23999 8.428717,21.123588 8.2270992,20.903129 8.0847956,20.750082 7.2703352,19.874134 6.6581099,18.769892 6.3967302,17.7054 6.2260231,17.010179 6.2364859,16.742748 6.4575593,16.150588 c 0.2314838,-0.620044 0.5366144,-1.1126 0.9683231,-1.563112 0.3853959,-0.402183 0.7403994,-0.675255 1.7929411,-1.379149 0.5124706,-0.342718 0.9799275,-0.668935 1.0387935,-0.724928 0.304875,-0.289993 0.570705,-0.915666 0.727201,-1.711587 0.08401,-0.427282 0.134435,-0.7765179 0.112109,-0.7765179 -0.01098,0 -0.05504,0.1175299 -0.09791,0.2611769 -0.281088,0.941758 -0.614647,1.700679 -0.872913,1.986073 -0.1296973,0.14332 -0.2149983,0.201352 -0.5574953,0.379275 C 8.99602,12.91927 8.04653,13.620383 7.4860405,14.159607 6.8460684,14.775298 6.4397286,15.434664 6.12858,16.362353 c -0.1348866,0.402164 -0.1420688,0.438659 -0.1423751,0.723438 -5.515e-4,0.512663 0.1708649,1.046771 0.6196314,1.93068 0.4342357,0.855288 0.9535911,1.622487 1.5046108,2.222633 0.6029217,0.656675 1.1087158,0.910325 2.0966119,1.05143 0.656885,0.09382 0.988039,0.119543 1.601285,0.124361 l 0.50011,0.0039 z"
   id="path847" /><path
   style="fill:#fffeaf;stroke:#fffeaf;stroke-width:0.0282353"
   d="m 11.128314,21.663529 c -0.104711,-0.09509 -0.404388,-0.543763 -0.56105,-0.84 -0.185285,-0.350359 -0.40577,-0.843549 -0.436528,-0.976444 -0.01981,-0.08559 -0.03451,-0.320853 -0.03337,-0.534144 0.0018,-0.329973 0.01233,-0.415172 0.07866,-0.634253 0.144475,-0.477151 0.330082,-0.836925 0.619615,-1.201041 0.18743,-0.235711 0.310932,-0.473532 0.360173,-0.693564 0.03195,-0.142764 0.03393,-0.144928 0.08551,-0.09335 0.05078,0.05079 0.0528,0.148693 0.0528,2.565741 0,1.409213 -0.01081,2.512941 -0.0246,2.512941 -0.01353,0 -0.07707,-0.04765 -0.1412,-0.105883 z"
   id="path849" /></svg>
