<?xml version="1.0" encoding="UTF-8" standalone="no"?>
<svg
   xmlns:dc="http://purl.org/dc/elements/1.1/"
   xmlns:cc="http://creativecommons.org/ns#"
   xmlns:rdf="http://www.w3.org/1999/02/22-rdf-syntax-ns#"
   xmlns:svg="http://www.w3.org/2000/svg"
   xmlns="http://www.w3.org/2000/svg"
   xmlns:sodipodi="http://sodipodi.sourceforge.net/DTD/sodipodi-0.dtd"
   xmlns:inkscape="http://www.inkscape.org/namespaces/inkscape"
   width="28px"
   height="24px"
   viewBox="0 0 28 24"
   version="1.1"
   id="svg10"
   sodipodi:docname="ic-submenu-lock.svg"
   inkscape:version="1.0.2-2 (e86c870879, 2021-01-15)">
  <metadata
     id="metadata16">
    <rdf:RDF>
      <cc:Work
         rdf:about="">
        <dc:format>image/svg+xml</dc:format>
        <dc:type
           rdf:resource="http://purl.org/dc/dcmitype/StillImage" />
        <dc:title>Sub Menu Locked Copy 2</dc:title>
      </cc:Work>
    </rdf:RDF>
  </metadata>
  <defs
     id="defs14" />
  <sodipodi:namedview
     pagecolor="#ffffff"
     bordercolor="#666666"
     borderopacity="1"
     objecttolerance="10"
     gridtolerance="10"
     guidetolerance="10"
     inkscape:pageopacity="0"
     inkscape:pageshadow="2"
     inkscape:window-width="1920"
     inkscape:window-height="1017"
     id="namedview12"
     showgrid="false"
     inkscape:pagecheckerboard="true"
     inkscape:zoom="35.416667"
     inkscape:cx="14"
     inkscape:cy="12"
     inkscape:window-x="-8"
     inkscape:window-y="-8"
     inkscape:window-maximized="1"
     inkscape:current-layer="svg10" />
  <!-- Generator: Sketch 52.6 (67491) - http://www.bohemiancoding.com/sketch -->
  <title
     id="title2">Sub Menu Locked Copy 2</title>
  <desc
     id="desc4">Created with Sketch.</desc>
  <g
     id="Sub-Menu-Locked-Copy-2"
     stroke="none"
     stroke-width="1"
     fill="none"
     fill-rule="evenodd">
    <g
       id="ic-check-locked"
       transform="translate(4.000000, 0.000000)">
      <path
         d="M18,10 L18,8 C18,4.6862915 15.3137085,2 12,2 C8.6862915,2 6,4.6862915 6,8 L6,10 L4,10 L4,22 L20,22 L20,10 L18,10 Z M8,8 C8,5.790861 9.790861,4 12,4 C14.209139,4 16,5.790861 16,8 L16,10 L8,10 L8,8 Z M18,20 L6,20 L6,12 L18,12 L18,20 Z"
         id="Path_18899"
         style="fill:#fffeaf;fill-opacity:1" />
      <polygon
         id="Rectangle_4417"
         points="0 0 24 0 24 24 0 24" />
    </g>
  </g>
</svg>
