<?xml version="1.0" encoding="UTF-8" standalone="no"?>
<svg
   xmlns:dc="http://purl.org/dc/elements/1.1/"
   xmlns:cc="http://creativecommons.org/ns#"
   xmlns:rdf="http://www.w3.org/1999/02/22-rdf-syntax-ns#"
   xmlns:svg="http://www.w3.org/2000/svg"
   xmlns="http://www.w3.org/2000/svg"
   xmlns:sodipodi="http://sodipodi.sourceforge.net/DTD/sodipodi-0.dtd"
   xmlns:inkscape="http://www.inkscape.org/namespaces/inkscape"
   width="24px"
   height="24px"
   viewBox="0 0 24 24"
   version="1.1"
   id="svg10"
   sodipodi:docname="ic-update.svg"
   inkscape:version="1.0.2-2 (e86c870879, 2021-01-15)">
  <metadata
     id="metadata16">
    <rdf:RDF>
      <cc:Work
         rdf:about="">
        <dc:format>image/svg+xml</dc:format>
        <dc:type
           rdf:resource="http://purl.org/dc/dcmitype/StillImage" />
      </cc:Work>
    </rdf:RDF>
  </metadata>
  <defs
     id="defs14" />
  <sodipodi:namedview
     pagecolor="#ffffff"
     bordercolor="#666666"
     borderopacity="1"
     objecttolerance="10"
     gridtolerance="10"
     guidetolerance="10"
     inkscape:pageopacity="0"
     inkscape:pageshadow="2"
     inkscape:window-width="1920"
     inkscape:window-height="1017"
     id="namedview12"
     showgrid="false"
     inkscape:zoom="35.416667"
     inkscape:cx="12"
     inkscape:cy="12"
     inkscape:window-x="-8"
     inkscape:window-y="-8"
     inkscape:window-maximized="1"
     inkscape:current-layer="svg10" />
  <!-- Generator: Sketch 55.2 (78181) - https://sketchapp.com -->
  <title
     id="title2">Artboard</title>
  <desc
     id="desc4">Created with Sketch.</desc>
  <g
     id="Artboard"
     stroke="none"
     stroke-width="1"
     fill="none"
     fill-rule="evenodd">
    <g
       id="ic-update"
       transform="translate(2.000000, 2.000000)">
      <polygon
         id="Rectangle_4642"
         points="0 0 20 0 20 20 0 20" />
      <path
         d="M13,8.5 L18,8.5 L18,3.5 L16,3.5 L16,4.715 C13.5656847,1.94871304 9.55671298,1.2030267 6.29053814,2.90899747 C3.0243633,4.61496824 1.34594778,8.33125994 2.22552783,11.9096078 C3.10510789,15.4879556 6.31513536,18.0026378 10,18.0000301 C12.1229023,18.0058338 14.1599129,17.1621506 15.657,15.657 L14.243,14.243 C12.4656191,16.0235516 9.76616433,16.5061689 7.48194074,15.4517642 C5.19771716,14.3973595 3.81387589,12.02988 4.01596945,9.52217092 C4.21806302,7.01446183 5.96316833,4.89914079 8.38676331,4.2241341 C10.8103583,3.5491274 13.3976904,4.45780116 14.867,6.5 L13,6.5 L13,8.5 Z"
         id="Path_18962"
         fill="#5C4B7D"
         fill-rule="nonzero" />
    </g>
  </g>
  <path
     style="fill:#fffeaf;stroke-width:0.0282353"
     d="M 11.336471,19.95815 C 10.319107,19.869237 9.3654963,19.599789 8.4447086,19.141067 7.5424854,18.691593 6.8164453,18.147633 6.1190112,17.398621 4.1711636,15.306722 3.5067116,12.223553 4.4174,9.5028576 5.1754082,7.2382969 6.8126934,5.4946048 9.0313759,4.5890195 9.5963644,4.3584118 10.195837,4.1986702 10.898824,4.0914006 c 0.485124,-0.074026 1.518078,-0.089405 1.990588,-0.029637 1.850896,0.234121 3.43076,0.9992618 4.741996,2.296588 C 17.832448,6.5572583 18.0008,6.72 18.005526,6.72 c 0.0047,0 0.0086,-0.2731765 0.0086,-0.6070588 V 5.5058824 h 0.988235 0.988235 V 7.9905882 10.475294 H 17.505882 15.021176 V 9.5011765 8.5270588 h 0.931765 c 0.512471,0 0.931765,-0.0077 0.931765,-0.017119 0,-0.042911 -0.388297,-0.5077339 -0.613677,-0.7346211 C 14.052381,5.541832 10.530222,5.3884096 8.1032053,7.4195348 7.0527061,8.2986782 6.3116221,9.5985812 6.0713465,10.983529 c -0.078898,0.454767 -0.1054286,1.181844 -0.058862,1.613105 0.1538153,1.424503 0.7405189,2.660337 1.7354401,3.655537 1.6194785,1.61993 3.9616394,2.172513 6.1503384,1.451041 0.80776,-0.266265 1.459585,-0.647284 2.155609,-1.260039 l 0.199755,-0.175858 0.689657,0.691872 0.689657,0.691872 -0.254117,0.241529 c -0.577088,0.548498 -1.414658,1.095486 -2.188236,1.42906 -1.225499,0.528446 -2.563025,0.749337 -3.854117,0.636502 z"
     id="path841" />
</svg>
