<?xml version="1.0" encoding="UTF-8" standalone="no"?>
<svg
   xmlns:dc="http://purl.org/dc/elements/1.1/"
   xmlns:cc="http://creativecommons.org/ns#"
   xmlns:rdf="http://www.w3.org/1999/02/22-rdf-syntax-ns#"
   xmlns:svg="http://www.w3.org/2000/svg"
   xmlns="http://www.w3.org/2000/svg"
   xmlns:sodipodi="http://sodipodi.sourceforge.net/DTD/sodipodi-0.dtd"
   xmlns:inkscape="http://www.inkscape.org/namespaces/inkscape"
   width="24px"
   height="40px"
   viewBox="0 0 24 40"
   version="1.1"
   id="svg98"
   sodipodi:docname="ic-nav-address.svg"
   inkscape:version="1.0.2-2 (e86c870879, 2021-01-15)">
  <metadata
     id="metadata104">
    <rdf:RDF>
      <cc:Work
         rdf:about="">
        <dc:format>image/svg+xml</dc:format>
        <dc:type
           rdf:resource="http://purl.org/dc/dcmitype/StillImage" />
      </cc:Work>
    </rdf:RDF>
  </metadata>
  <defs
     id="defs102" />
  <sodipodi:namedview
     pagecolor="#ffffff"
     bordercolor="#666666"
     borderopacity="1"
     objecttolerance="10"
     gridtolerance="10"
     guidetolerance="10"
     inkscape:pageopacity="0"
     inkscape:pageshadow="2"
     inkscape:window-width="1694"
     inkscape:window-height="1008"
     id="namedview100"
     showgrid="false"
     inkscape:zoom="20.675"
     inkscape:cx="24.309553"
     inkscape:cy="20"
     inkscape:window-x="0"
     inkscape:window-y="0"
     inkscape:window-maximized="0"
     inkscape:current-layer="svg98" />
  <!-- Generator: Sketch 52.6 (67491) - http://www.bohemiancoding.com/sketch -->
  <title
     id="title90">Address</title>
  <desc
     id="desc92">Created with Sketch.</desc>
  <g
     id="Address"
     stroke="none"
     stroke-width="1"
     fill="none"
     fill-rule="evenodd">
    <g
       id="Group-2"
       transform="translate(3.000000, 12.000000)"
       fill="#938DA5"
       fill-rule="nonzero">
      <path
         d="M4,0 L0,0 L0,22 L18,22 L18,0 L4,0 Z M2,20 L2,2 L3,2 L3,20 L2,20 Z M16,20 L5,20 L5,2 L16,2 L16,20 Z"
         id="Path_18863" />
      <path
         d="M15,4 L6,4 L6,10 L15,10 L15,4 Z M13,8 L8,8 L8,6 L13,6 L13,8 Z"
         id="Path_18864" />
    </g>
  </g>
  <path
     style="fill:#fffeab;stroke-width:0.0483676"
     d="M 3.0278114,22.998791 V 12.043531 H 12 20.972189 v 10.95526 10.95526 H 12 3.0278114 Z m 2.9987908,0 V 13.978235 H 5.4945586 4.9625151 v 9.020556 9.020556 h 0.5320435 0.5320436 z m 13.0108828,0 v -9.020556 h -5.53809 -5.5380891 v 9.020556 9.020556 h 5.5380891 5.53809 z"
     id="path216" />
  <path
     style="fill:#fffeab;stroke-width:0.0483676"
     d="m 9.025393,18.984281 v -2.974607 h 4.474002 4.474003 v 2.974607 2.974607 H 13.499395 9.025393 Z m 7.013301,0.02418 v -1.015719 h -2.539299 -2.539298 v 1.015719 1.01572 h 2.539298 2.539299 z"
     id="path218" />
</svg>
