<?xml version="1.0" encoding="UTF-8" standalone="no"?>
<svg
   xmlns:dc="http://purl.org/dc/elements/1.1/"
   xmlns:cc="http://creativecommons.org/ns#"
   xmlns:rdf="http://www.w3.org/1999/02/22-rdf-syntax-ns#"
   xmlns:svg="http://www.w3.org/2000/svg"
   xmlns="http://www.w3.org/2000/svg"
   xmlns:sodipodi="http://sodipodi.sourceforge.net/DTD/sodipodi-0.dtd"
   xmlns:inkscape="http://www.inkscape.org/namespaces/inkscape"
   version="1.1"
   id="Layer_1"
   x="0px"
   y="0px"
   viewBox="0 0 24 31"
   style="enable-background:new 0 0 24 31;"
   xml:space="preserve"
   sodipodi:docname="ic-nav-cold-staking-active.svg"
   inkscape:version="1.0.2-2 (e86c870879, 2021-01-15)"><metadata
   id="metadata13"><rdf:RDF><cc:Work
       rdf:about=""><dc:format>image/svg+xml</dc:format><dc:type
         rdf:resource="http://purl.org/dc/dcmitype/StillImage" /></cc:Work></rdf:RDF></metadata><defs
   id="defs11" /><sodipodi:namedview
   pagecolor="#ffffff"
   bordercolor="#666666"
   borderopacity="1"
   objecttolerance="10"
   gridtolerance="10"
   guidetolerance="10"
   inkscape:pageopacity="0"
   inkscape:pageshadow="2"
   inkscape:window-width="1920"
   inkscape:window-height="1017"
   id="namedview9"
   showgrid="false"
   inkscape:zoom="27.419355"
   inkscape:cx="12"
   inkscape:cy="15.5"
   inkscape:window-x="-8"
   inkscape:window-y="-8"
   inkscape:window-maximized="1"
   inkscape:current-layer="Layer_1" />
<style
   type="text/css"
   id="style2">
	.st0{fill:#932178;}
</style>
<desc
   id="desc4">Created with Sketch.</desc>
<path
   class="st0"
   d="M21.7,22.6l-3-1.6l2.7-0.5c0.5,0,0.8-0.5,0.5-1.1c0-0.5-0.5-0.8-1.1-0.5L16.5,20l-3-1.6l3-1.6l4.3,1.1h0.3  c0.3,0,0.8-0.3,0.8-0.5c0-0.5-0.3-0.8-0.5-1.1l-2.7-0.5l3-1.6c0.5-0.3,0.5-0.8,0.3-1.1c-0.3-0.3-0.8-0.5-1.1-0.3l-3,1.6l0.8-2.4  c0-0.5-0.3-0.8-0.5-1.1c-0.5,0-1.1,0.3-1.1,0.5L16,15.3l-3,1.6v-3.3l3.3-3c0.3-0.3,0.3-0.8,0-1.1c-0.3-0.3-0.8-0.3-1.4,0l-1.8,2V8.3  c0-0.5-0.3-0.8-0.8-0.8s-0.8,0.3-0.8,0.8v3.2L9.3,9.4C9,9.1,8.5,9.1,7.9,9.4c-0.3,0.3-0.3,0.8,0,1.1l3.3,3v3.3l-3-1.6l-1.1-4.1  c0-0.5-0.5-0.8-1.1-0.5c-0.5,0-0.8,0.5-0.5,1.1l0.8,2.4l-3-1.6c-0.5-0.3-1.1,0-1.1,0.3c-0.3,0.3,0,0.8,0.3,1.1l3,1.6L2.8,16  c-0.5,0-0.8,0.5-0.5,1.1c-0.1,0.1,0.5,0.4,0.7,0.4h0.3l4.3-1.1l3,1.6l-3,1.6l-4.3-1.1c-0.5,0-1.1,0.3-1.1,0.5c0,0.5,0.3,0.8,0.5,1.1  l2.7,0.5l-3,1.6c-0.5,0.3-0.5,0.8-0.3,1.1c0.3,0.3,0.5,0.5,0.8,0.5s0.3,0,0.5,0l2.7-1.6l-0.8,2.7c0,0.5,0.3,0.8,0.5,1.1h0.3  c0.3,0,0.8-0.3,0.8-0.5L8,21.4l3-1.6v3.3l-3.3,3c-0.3,0.3-0.3,0.8,0,1.1s0.8,0.3,1.4,0l1.9-1.9v3.3c0,0.5,0.3,0.8,0.8,0.8  s0.8-0.3,0.8-0.8v-3.3l1.9,1.9c0.5,0.3,0.5,0.3,0.7,0.3c0.3,0,0.5,0,0.5-0.3c0.3-0.3,0.3-0.8,0-1.1l-3.3-3v-3.5l3,1.6l1.1,4.1  c0,0.3,0.5,0.5,0.8,0.5h0.3c0.5,0,0.8-0.5,0.5-1.1v-2.4l3,1.6c0.3,0,0.3,0,0.5,0c0.3,0,0.5-0.3,0.8-0.5  C22.6,23.5,22.3,22.9,21.7,22.6z"
   id="path6" />
<path
   style="fill:#fffeab;stroke-width:0.0364706"
   d="m 11.545553,29.341814 c -0.21748,-0.05837 -0.431763,-0.267957 -0.490596,-0.479845 -0.02548,-0.09176 -0.03933,-0.749316 -0.03946,-1.87348 l -2.04e-4,-1.7321 -0.976489,0.975987 c -0.96255,0.962056 -0.9801201,0.977269 -1.2308817,1.065742 -0.326481,0.115189 -0.6873925,0.123056 -0.8905534,0.01941 C 7.5395891,27.1248 7.3996317,26.687998 7.5874381,26.287828 7.6129001,26.233574 8.394584,25.497726 9.3245133,24.65261 l 1.6907807,-1.536575 v -1.656253 c 0,-0.986237 -0.0136,-1.656253 -0.03362,-1.656253 -0.01849,0 -0.699944,0.355686 -1.5143408,0.790414 l -1.4807205,0.790412 -0.052441,0.185176 c -0.028842,0.101846 -0.2827714,1.045803 -0.5642871,2.097681 -0.5615924,2.098381 -0.5313616,2.022105 -0.8690336,2.19266 -0.1187359,0.05997 -0.2521372,0.09118 -0.4306228,0.100731 L 5.8116334,25.974444 5.6826635,25.797516 C 5.6117301,25.700206 5.5097172,25.533147 5.4559683,25.426275 5.2729753,25.062418 5.276135,25.040011 5.721655,23.54214 5.9423432,22.800169 6.1182599,22.188456 6.112581,22.182777 6.106901,22.177077 5.4931531,22.533885 4.7486946,22.975638 L 3.3951338,23.778824 3.0931551,23.778021 C 2.729858,23.777059 2.5828886,23.719065 2.3026987,23.466111 2.0779979,23.263252 2.0070588,23.1233 2.0070588,22.88286 c 0,-0.203794 0.072072,-0.366478 0.230296,-0.519835 0.064937,-0.06294 0.79873,-0.477446 1.6306506,-0.921125 0.8319205,-0.443679 1.5194211,-0.813288 1.5277789,-0.821354 0.00836,-0.0081 0.00836,-0.02126 0,-0.02933 -0.00836,-0.0081 -0.6163709,-0.125681 -1.3511402,-0.26136 L 2.7087001,20.083162 2.5228876,19.806581 C 2.2206498,19.356702 2.1430107,19.016877 2.3079412,18.865767 c 0.172721,-0.158248 0.6492648,-0.338708 0.8944311,-0.338708 0.068435,0 1.0867594,0.24614 2.2629429,0.546979 l 2.1385154,0.546978 1.4879967,-0.793155 c 0.8183981,-0.436235 1.4868507,-0.809567 1.4854517,-0.829626 -0.0014,-0.02006 -0.6706692,-0.392792 -1.487265,-0.828297 L 7.6052941,16.378111 5.4732616,16.923761 C 3.0637793,17.540419 3.033243,17.545151 2.6483727,17.361469 2.39489,17.240493 2.3325536,17.179829 2.2721035,16.995294 2.1477257,16.615608 2.1857295,16.380065 2.4030454,16.183733 c 0.077231,-0.06977 0.1956214,-0.135765 0.2640642,-0.147192 0.7336438,-0.122485 2.8411257,-0.521894 2.8411257,-0.538448 0,-0.01186 -0.6735617,-0.379633 -1.4968038,-0.817267 -1.5985684,-0.849797 -1.649276,-0.884573 -1.8279244,-1.253611 -0.095451,-0.197177 -0.1040292,-0.451771 -0.018409,-0.546381 0.033431,-0.03694 0.060784,-0.09236 0.060784,-0.123144 0,-0.08745 0.1726491,-0.238539 0.3499406,-0.306248 0.3355339,-0.128141 0.3924579,-0.106191 2.1302272,0.821418 0.8683145,0.463501 1.5866744,0.834807 1.5963555,0.825127 0.00968,-0.0097 -0.1896649,-0.634107 -0.4429904,-1.387613 -0.2533254,-0.753506 -0.4602313,-1.422901 -0.4597908,-1.487545 0.00111,-0.163298 0.1203036,-0.409618 0.2343752,-0.484361 0.1144458,-0.07499 0.519846,-0.194866 0.7543956,-0.223077 0.092941,-0.01118 0.2275178,-10e-4 0.2990592,0.0226 0.1689361,0.05575 0.3426321,0.255936 0.372895,0.429755 0.037423,0.214942 1.1127118,4.219285 1.1403295,4.246552 0.030472,0.03008 2.8813713,1.54927 2.9696153,1.582447 0.0602,0.02263 0.06382,-0.07023 0.06382,-1.636159 V 13.500435 L 9.5386095,11.959564 C 8.2700647,10.806716 7.8246392,10.380555 7.769786,10.267244 7.6148997,9.9472915 7.7255956,9.5379362 8.0088937,9.3830193 8.3666519,9.187385 8.833893,9.1452242 9.0937985,9.2851247 c 0.071097,0.03827 0.6432978,0.5606784 1.2715575,1.1609083 l 1.142291,1.091327 0.01823,-1.7660328 c 0.0202,-1.9564399 0.01294,-1.8990489 0.264374,-2.0888016 0.30515,-0.2302899 0.759566,-0.2200748 1.036762,0.023306 0.251732,0.2210243 0.246857,0.182788 0.2671,2.0946759 l 0.01824,1.7222725 0.827755,-0.91992 c 0.455265,-0.505955 0.869005,-0.963626 0.919422,-1.017046 0.195129,-0.2067529 0.833652,-0.3484668 1.129766,-0.2507404 0.42163,0.1391505 0.63209,0.650458 0.430436,1.0457334 -0.05484,0.107487 -0.553229,0.583238 -1.755798,1.676032 l -1.679228,1.525942 v 1.6704 1.670401 l 0.180157,-0.09129 c 0.55085,-0.279137 2.798298,-1.490825 2.831964,-1.526823 0.02187,-0.02339 0.28299,-0.912348 0.580261,-1.975466 0.29727,-1.063118 0.554977,-1.961901 0.572681,-1.997297 0.07115,-0.142241 0.52977,-0.351284 0.887346,-0.40446 l 0.147115,-0.02188 0.189347,0.281817 c 0.203985,0.303602 0.300541,0.533491 0.300541,0.715553 0,0.06301 -0.179254,0.651772 -0.398342,1.308356 -0.219088,0.656585 -0.384992,1.19379 -0.368675,1.19379 0.01632,0 0.723092,-0.370144 1.570612,-0.822542 0.84752,-0.452398 1.586029,-0.831559 1.64113,-0.842579 0.270458,-0.05409 0.823141,0.248417 0.927966,0.507918 0.109686,0.271536 0.03501,0.59251 -0.186034,0.799587 -0.05769,0.05405 -0.785981,0.461739 -1.618422,0.905984 -0.832441,0.444244 -1.525999,0.819506 -1.54124,0.833915 -0.01524,0.01441 0.575582,0.137654 1.312941,0.273878 0.737358,0.136224 1.354576,0.256195 1.371595,0.266602 0.07634,0.04668 0.393721,0.584439 0.443132,0.750824 0.08186,0.275641 0.07082,0.36026 -0.06378,0.489017 -0.204425,0.195549 -0.415725,0.282105 -0.720294,0.29506 -0.25263,0.01075 -0.436838,-0.03028 -2.410854,-0.536951 L 16.496528,16.77801 15.01116,17.570475 c -0.816952,0.435857 -1.488127,0.808221 -1.491499,0.827478 -0.0034,0.01926 0.665165,0.392325 1.485638,0.829041 l 1.491768,0.794028 2.009408,-0.511577 c 1.105174,-0.281367 2.132497,-0.55009 2.282938,-0.597162 0.376242,-0.117722 0.480677,-0.132309 0.637419,-0.08903 0.227526,0.06282 0.377988,0.233721 0.461688,0.524395 0.115505,0.401128 0.126337,0.634656 0.03751,0.808765 -0.137744,0.270001 -0.02456,0.239622 -2.717699,0.729427 -0.418454,0.0761 -0.529197,0.107633 -0.486842,0.138603 0.03015,0.02205 0.748502,0.408732 1.596329,0.859294 1.313687,0.698136 1.575982,0.851144 1.774804,1.035314 0.198941,0.18428 0.371831,0.411672 0.331536,0.436047 -0.0065,0.0039 -0.127823,0.100306 -0.26962,0.214174 -0.363706,0.292067 -0.426092,0.318479 -0.75287,0.31874 l -0.281271,2.24e-4 -1.500519,-0.802353 c -0.825285,-0.441294 -1.506992,-0.802353 -1.514905,-0.802353 -0.0079,0 -0.01439,0.547731 -0.01439,1.21718 0,0.988711 0.01027,1.246283 0.05471,1.372232 0.122739,0.347881 0.01164,0.686605 -0.272139,0.829706 -0.320521,0.161629 -0.91873,0.08533 -1.188606,-0.151594 -0.12742,-0.111864 -0.133297,-0.130709 -0.694891,-2.228112 -0.311511,-1.163412 -0.577576,-2.126219 -0.591256,-2.139572 -0.03038,-0.02965 -2.880268,-1.547798 -2.969873,-1.582062 -0.06025,-0.02304 -0.06377,0.07438 -0.06292,1.739203 l 9.08e-4,1.763608 1.685858,1.531764 c 1.860987,1.690887 1.865492,1.695943 1.841134,2.066408 -0.0094,0.142811 -0.042,0.249563 -0.105843,0.346471 -0.05075,0.07703 -0.103342,0.184721 -0.116871,0.239304 -0.03297,0.133025 -0.12964,0.177821 -0.399586,0.185174 -0.198867,0.0054 -0.256485,-0.01048 -0.481212,-0.132728 -0.211479,-0.115047 -0.4225,-0.305579 -1.22956,-1.110181 l -0.974268,-0.971299 -0.01044,1.80372 -0.01044,1.80372 -0.084,0.146509 C 12.378935,29.191502 12.218116,29.306114 12,29.355986 c -0.203971,0.04664 -0.231021,0.04579 -0.454447,-0.01417 z"
   id="path15" /></svg>
