<?xml version="1.0" encoding="UTF-8" standalone="no"?>
<svg
   xmlns:dc="http://purl.org/dc/elements/1.1/"
   xmlns:cc="http://creativecommons.org/ns#"
   xmlns:rdf="http://www.w3.org/1999/02/22-rdf-syntax-ns#"
   xmlns:svg="http://www.w3.org/2000/svg"
   xmlns="http://www.w3.org/2000/svg"
   xmlns:sodipodi="http://sodipodi.sourceforge.net/DTD/sodipodi-0.dtd"
   xmlns:inkscape="http://www.inkscape.org/namespaces/inkscape"
   version="1.1"
   id="Layer_1"
   x="0px"
   y="0px"
   viewBox="0 0 24 40"
   style="enable-background:new 0 0 24 40;"
   xml:space="preserve"
   sodipodi:docname="ic-nav-send-active.svg"
   inkscape:version="1.0.2-2 (e86c870879, 2021-01-15)"><metadata
   id="metadata18"><rdf:RDF><cc:Work
       rdf:about=""><dc:format>image/svg+xml</dc:format><dc:type
         rdf:resource="http://purl.org/dc/dcmitype/StillImage" /></cc:Work></rdf:RDF></metadata><defs
   id="defs16" /><sodipodi:namedview
   pagecolor="#ffffff"
   bordercolor="#666666"
   borderopacity="1"
   objecttolerance="10"
   gridtolerance="10"
   guidetolerance="10"
   inkscape:pageopacity="0"
   inkscape:pageshadow="2"
   inkscape:window-width="1920"
   inkscape:window-height="1017"
   id="namedview14"
   showgrid="false"
   inkscape:zoom="21.25"
   inkscape:cx="12"
   inkscape:cy="20"
   inkscape:window-x="-8"
   inkscape:window-y="-8"
   inkscape:window-maximized="1"
   inkscape:current-layer="Layer_1" />
<style
   type="text/css"
   id="style2">
	.st0{fill-rule:evenodd;clip-rule:evenodd;fill:#932178;}
	.st1{fill:none;}
</style>
<desc
   id="desc4">Created with Sketch.</desc>
<g
   id="Send">
	<g
   id="ic-send"
   transform="translate(-1.000000, 11.000000)">
		<g
   id="Group_8811"
   transform="translate(1.000000, 1.000000)">
			<polygon
   id="Path_18865"
   class="st0"
   points="0.4,9.1 7.6,13.6 9,12.2 4.9,9.6 19.7,4.3 14.4,19.1 11.8,15 10.4,16.4 14.9,23.6      23,1    " />
			<g
   id="Group_8810"
   transform="translate(8.000000, 8.000000)">
				<polygon
   id="Rectangle_4394"
   class="st0"
   points="0.3,6.3 5.9,0.6 7.4,2.1 1.7,7.7     " />
			</g>
		</g>
		<polygon
   id="Rectangle_4395"
   class="st1"
   points="0,0 26,0 26,26 0,26   " />
	</g>
</g>
<path
   style="fill:#fffeab;stroke-width:0.0470588"
   d="m 12.662901,31.969068 -2.224333,-3.559385 0.673354,-0.674557 c 0.370344,-0.371006 0.688205,-0.659067 0.706356,-0.640135 0.01815,0.01893 0.596538,0.923833 1.285305,2.010891 0.688767,1.087059 1.2681,1.981958 1.287407,1.988663 0.03821,0.01327 5.343324,-14.764152 5.311698,-14.795778 -0.03131,-0.03131 -14.8101845,5.273002 -14.7970372,5.310831 0.0066,0.01898 0.901408,0.598052 1.9884668,1.286819 1.0870589,0.688767 1.99196,1.267154 2.0108918,1.285305 0.018932,0.01815 -0.2691294,0.336012 -0.6401355,0.706356 L 7.5903172,25.561432 4.0309321,23.337099 C 2.0732703,22.113716 0.47662541,21.108438 0.48283233,21.103148 0.53619182,21.057666 22.882873,13.078952 22.90235,13.098428 c 0.01974,0.01974 -7.960575,22.369486 -8.00495,22.41874 -0.0056,0.0062 -1.011116,-1.590438 -2.234499,-3.5481 z"
   id="path20" /><path
   style="fill:#fffeab;stroke-width:0.0470588"
   d="m 9.0146309,26.967577 -0.6546965,-0.655951 0.2660379,-0.29699 c 0.1463208,-0.163344 1.3941587,-1.436761 2.7729737,-2.829815 l 2.506936,-2.532826 0.721043,0.725015 0.721043,0.725014 -2.801864,2.760753 c -1.541025,1.518414 -2.8187196,2.760752 -2.8393205,2.760752 -0.020601,0 -0.3320696,-0.295178 -0.6921526,-0.655952 z"
   id="path22" /></svg>
