<?xml version="1.0" encoding="UTF-8" standalone="no"?>
<svg
   xmlns:dc="http://purl.org/dc/elements/1.1/"
   xmlns:cc="http://creativecommons.org/ns#"
   xmlns:rdf="http://www.w3.org/1999/02/22-rdf-syntax-ns#"
   xmlns:svg="http://www.w3.org/2000/svg"
   xmlns="http://www.w3.org/2000/svg"
   xmlns:sodipodi="http://sodipodi.sourceforge.net/DTD/sodipodi-0.dtd"
   xmlns:inkscape="http://www.inkscape.org/namespaces/inkscape"
   width="24px"
   height="40px"
   viewBox="0 0 24 40"
   version="1.1"
   id="svg10"
   sodipodi:docname="ic-nav-privacy.svg"
   inkscape:version="1.0.2-2 (e86c870879, 2021-01-15)">
  <metadata
     id="metadata16">
    <rdf:RDF>
      <cc:Work
         rdf:about="">
        <dc:format>image/svg+xml</dc:format>
        <dc:type
           rdf:resource="http://purl.org/dc/dcmitype/StillImage" />
      </cc:Work>
    </rdf:RDF>
  </metadata>
  <defs
     id="defs14" />
  <sodipodi:namedview
     pagecolor="#ffffff"
     bordercolor="#666666"
     borderopacity="1"
     objecttolerance="10"
     gridtolerance="10"
     guidetolerance="10"
     inkscape:pageopacity="0"
     inkscape:pageshadow="2"
     inkscape:window-width="1920"
     inkscape:window-height="1017"
     id="namedview12"
     showgrid="false"
     inkscape:zoom="21.25"
     inkscape:cx="12"
     inkscape:cy="20"
     inkscape:window-x="-8"
     inkscape:window-y="-8"
     inkscape:window-maximized="1"
     inkscape:current-layer="svg10" />
  <!-- Generator: Sketch 52.6 (67491) - http://www.bohemiancoding.com/sketch -->
  <title
     id="title2">Privacy</title>
  <desc
     id="desc4">Created with Sketch.</desc>
  <g
     id="Privacy"
     stroke="none"
     stroke-width="1"
     fill="none"
     fill-rule="evenodd">
    <g
       id="Group"
       transform="translate(1.000000, 13.000000)"
       fill="#938DA5"
       fill-rule="nonzero">
      <path
         d="M20.025,10.116 L17.771,0.009 L11,1.156 L4.229,0 L1.975,10.116 L0,10.116 L0,12.116 L22,12.116 L22,10.116 L20.025,10.116 Z M5.771,2.294 L11,3.183 L16.229,2.283 L17.976,10.116 L4.024,10.116 L5.771,2.294 Z"
         id="Path_18869" />
      <path
         d="M12,16.116 L10,16.116 L10,14.116 L1,14.116 L1,17.854 C1.08087292,20.2726593 3.08016383,22.1830929 5.5,22.154 C7.77023475,22.0683766 9.65187105,20.366305 9.964,18.116 L12.036,18.116 C12.3490129,20.3655153 14.2304203,22.0665369 16.5,22.152 C18.9198362,22.1810929 20.9191271,20.2706593 21,17.852 L21,14.116 L12,14.116 L12,16.116 Z M8,17.854 C7.90893564,19.1676128 6.81676551,20.186691 5.5,20.186691 C4.18323449,20.186691 3.09106436,19.1676128 3,17.854 L3,16.116 L8,16.116 L8,17.854 Z M14,16.116 L19,16.116 L19,17.854 C18.9089356,19.1676128 17.8167655,20.186691 16.5,20.186691 C15.1832345,20.186691 14.0910644,19.1676128 14,17.854 L14,16.116 Z"
         id="Path_18870" />
    </g>
  </g>
  <path
     style="fill:#fffeab;stroke-width:0.0470588"
     d="M 1.0352941,24.117647 V 23.152941 H 2.0132304 2.9911668 L 4.1142905,18.105882 C 4.7320086,15.33 5.2428563,13.052022 5.2495078,13.043709 c 0.00665,-0.0083 1.5293454,0.243929 3.3837647,0.560537 l 3.3716715,0.575651 3.371051,-0.571327 c 1.854078,-0.314231 3.37431,-0.566472 3.378294,-0.560537 0.004,0.0059 0.512852,2.281967 1.130817,5.057849 l 1.123573,5.047059 h 0.978013 0.978014 v 0.964706 0.964706 H 12 1.0352941 Z M 19.000503,23.094118 c -0.01173,-0.03235 -0.411056,-1.810911 -0.887388,-3.952351 -0.706433,-3.17591 -0.879067,-3.889966 -0.936644,-3.874208 -0.03882,0.01063 -1.21958,0.215525 -2.623903,0.455331 L 11.999255,16.158902 9.4466861,15.72543 c -1.4039125,-0.238409 -2.5869802,-0.432986 -2.629039,-0.432392 -0.045289,6.39e-4 -0.087131,0.05385 -0.1026137,0.130491 -0.05576,0.27602 -1.685209,7.569333 -1.7084821,7.647059 -0.023407,0.07817 0.3316048,0.08235 6.9953127,0.08235 5.59598,0 7.015643,-0.01193 6.998639,-0.05882 z"
     id="path18" />
  <path
     style="fill:#fffeab;stroke-width:0.0470588"
     d="M 6.1411765,35.121571 C 4.2507732,34.965416 2.7527203,33.74002 2.1812161,31.882353 L 2.050919,31.458824 2.0342308,29.305882 2.0175426,27.152941 h 4.4735816 4.4735818 v 0.988235 0.988236 H 12 13.035294 v -0.988236 -0.988235 h 4.470588 4.470589 v 1.946777 c 0,2.139156 -0.02697,2.443464 -0.27737,3.129574 -0.624806,1.71201 -2.270475,2.875386 -4.073647,2.879791 -0.586783,0.0014 -0.998579,-0.07258 -1.58555,-0.284969 C 14.955202,34.431623 13.900544,33.449689 13.436257,32.4 13.28847,32.065875 13.082353,31.377621 13.082353,31.218265 V 31.105882 H 12 10.917647 v 0.112383 c 0,0.159356 -0.206117,0.84761 -0.353904,1.181735 -0.319009,0.721234 -1.0187778,1.52882 -1.7141543,1.978262 -0.3828249,0.247431 -0.9027798,0.479806 -1.3437063,0.60052 -0.2434942,0.06666 -1.0847151,0.187681 -1.1529412,0.165862 C 6.34,35.140508 6.2447059,35.130123 6.1411765,35.121571 Z m 1.0721656,-2.023942 c 0.7910626,-0.234699 1.4077238,-0.825636 1.685592,-1.615276 0.096791,-0.275059 0.1095421,-0.411393 0.126537,-1.352941 l 0.018899,-1.047059 H 6.5221851 4 v 1.030337 c 0,0.894839 0.012286,1.070115 0.093423,1.332806 0.1764529,0.571288 0.706726,1.209915 1.2210339,1.470535 0.2235359,0.113274 0.6204482,0.239145 0.8737782,0.277098 0.2241745,0.03359 0.7574823,-0.0161 1.025107,-0.0955 z m 11.0117649,0 c 0.776678,-0.230431 1.445248,-0.887337 1.68147,-1.652133 C 19.987714,31.182805 20,31.007529 20,30.11269 V 29.082353 H 17.477815 14.95563 l 0.0189,1.047059 c 0.01699,0.941548 0.02975,1.077882 0.126537,1.352941 0.324815,0.923053 1.109377,1.562525 2.098934,1.710776 0.224175,0.03359 0.757482,-0.0161 1.025106,-0.0955 z"
     id="path20" />
</svg>
