<?xml version="1.0" encoding="UTF-8" standalone="no"?>
<svg
   xmlns:dc="http://purl.org/dc/elements/1.1/"
   xmlns:cc="http://creativecommons.org/ns#"
   xmlns:rdf="http://www.w3.org/1999/02/22-rdf-syntax-ns#"
   xmlns:svg="http://www.w3.org/2000/svg"
   xmlns="http://www.w3.org/2000/svg"
   xmlns:sodipodi="http://sodipodi.sourceforge.net/DTD/sodipodi-0.dtd"
   xmlns:inkscape="http://www.inkscape.org/namespaces/inkscape"
   version="1.1"
   id="Layer_1"
   x="0px"
   y="0px"
   viewBox="0 0 24 30"
   style="enable-background:new 0 0 24 30;"
   xml:space="preserve"
   sodipodi:docname="ic-nav-master-active.svg"
   inkscape:version="1.0.2-2 (e86c870879, 2021-01-15)"><metadata
   id="metadata15"><rdf:RDF><cc:Work
       rdf:about=""><dc:format>image/svg+xml</dc:format><dc:type
         rdf:resource="http://purl.org/dc/dcmitype/StillImage" /></cc:Work></rdf:RDF></metadata><defs
   id="defs13" /><sodipodi:namedview
   pagecolor="#ffffff"
   bordercolor="#666666"
   borderopacity="1"
   objecttolerance="10"
   gridtolerance="10"
   guidetolerance="10"
   inkscape:pageopacity="0"
   inkscape:pageshadow="2"
   inkscape:window-width="1920"
   inkscape:window-height="1017"
   id="namedview11"
   showgrid="false"
   inkscape:zoom="28.333333"
   inkscape:cx="12"
   inkscape:cy="15"
   inkscape:window-x="-8"
   inkscape:window-y="-8"
   inkscape:window-maximized="1"
   inkscape:current-layer="Layer_1" />
<style
   type="text/css"
   id="style2">
	.st0{fill:#932178;}
	.st1{fill-rule:evenodd;clip-rule:evenodd;fill:#932178;}
</style>
<desc
   id="desc4">Created with Sketch.</desc>
<g
   id="Master-Active">
	<g
   id="Group-2"
   transform="translate(1.000000, 7.000000)">
		<path
   id="Path_18873"
   class="st0"
   d="M20.4,15.4c0.4-1.1,0.6-2.2,0.6-3.4c0-4.4-2.9-8.2-7.1-9.6C13.7,1,12.4,0,11,0S8.3,1,8,2.4    C5.4,3.2,3.3,5.1,2,7.5s-1.4,5.3-0.5,7.8c-1,0.6-1.6,1.7-1.6,2.8c0.1,1.2,0.8,2.2,2,2.6c1.1,0.4,2.3,0.1,3.2-0.7    c3.5,2.5,8.2,2.5,11.7,0c0.8,0.8,2.1,1.1,3.2,0.7c1.1-0.4,1.9-1.4,2-2.6C22.1,17,21.4,15.9,20.4,15.4L20.4,15.4z M11,2    c0.6,0,1,0.4,1,1s-0.4,1-1,1c-0.6,0-1-0.4-1-1S10.4,2,11,2z M3,19c-0.6,0-1-0.4-1-1c0-0.6,0.4-1,1-1s1,0.4,1,1C4,18.5,3.5,19,3,19    z M11,20c-1.8,0-3.6-0.6-5-1.8c0-0.1,0-0.1,0-0.2c0-1.4-1-2.6-2.4-2.9c-0.9-2-0.8-4.3,0.1-6.3s2.6-3.6,4.7-4.3C8.9,5.4,9.9,6,11,6    s2.1-0.6,2.6-1.6C16.8,5.5,19,8.6,19,12c0,1.1-0.2,2.1-0.6,3.1C17,15.3,16,16.6,16,18c0,0.1,0,0.1,0,0.2C14.6,19.3,12.8,20,11,20z     M19,19c-0.6,0-1-0.4-1-1c0-0.6,0.4-1,1-1c0.6,0,1,0.4,1,1C20,18.5,19.5,19,19,19z" />
		<polygon
   id="Path_18874"
   class="st1"
   points="16,16 16,7.6 11,11.7 6,7.6 6,16 8,16 8,11.8 11,14.3 14,11.8 14,16   " />
	</g>
</g>
<path
   style="fill:#fffeab;stroke-width:0.0352941"
   d="M 11.276716,28.833976 C 9.5494796,28.708788 7.8424758,28.133583 6.4476872,27.206749 6.2765619,27.093037 6.12255,27 6.1054384,27 6.0883267,27 5.9662793,27.082063 5.8342221,27.182362 5.562714,27.388576 4.9931012,27.672169 4.6764706,27.758773 4.3533737,27.847145 3.6761128,27.867984 3.346028,27.79971 2.7069637,27.667526 2.1976275,27.398176 1.7647059,26.963467 1.3041494,26.501009 1.0397197,25.964491 0.94611209,25.302571 0.81282116,24.360043 1.3595536,23.167279 2.2135781,22.537439 2.4332819,22.375409 2.5007692,22.30641 2.4918447,22.252941 2.4853646,22.214118 2.4220568,21.99387 2.3511608,21.763501 2.1885966,21.235268 2.0627372,20.616285 1.9903427,19.988978 1.917917,19.361402 1.9368741,18.100533 2.0276759,17.505882 2.1076617,16.982065 2.3232255,16.131844 2.4891025,15.685936 3.2305381,13.69282 4.7750682,11.764273 6.5907858,10.564452 7.2448567,10.132244 8.1841288,9.6751988 8.8323529,9.4737169 8.9931593,9.4237348 9.0354173,9.3954892 9.0358878,9.3376722 9.0367454,9.2323961 9.2501559,8.7215028 9.3911566,8.487182 9.6375819,8.0776617 10.09199,7.6532815 10.558819,7.3966801 c 1.265285,-0.6954879 2.882551,-0.3780524 3.763079,0.738614 0.22137,0.2807357 0.432025,0.7056899 0.514087,1.037066 0.03069,0.1239156 0.06029,0.2294032 0.06579,0.2344169 0.0055,0.00501 0.240287,0.099602 0.521757,0.2101959 2.68424,1.0546791 4.80305,3.1280301 5.84076,5.7154461 0.867437,2.162859 0.948548,4.527039 0.230682,6.723793 -0.0587,0.179643 -0.106736,0.331983 -0.106736,0.338533 0,0.0066 0.09788,0.07137 0.217515,0.144042 0.45881,0.278713 0.90824,0.788331 1.137979,1.29038 0.168831,0.368946 0.232742,0.664488 0.232742,1.076266 0,1.373703 -1.021193,2.598966 -2.412575,2.894694 -0.351599,0.07473 -1.074857,0.04592 -1.43035,-0.05697 -0.34358,-0.09944 -0.771569,-0.315771 -1.034651,-0.522965 -0.116802,-0.09199 -0.232719,-0.181942 -0.257592,-0.199894 -0.03135,-0.02263 -0.14966,0.03501 -0.385736,0.187945 -1.351469,0.875488 -2.899763,1.428072 -4.449685,1.588084 -0.541639,0.05592 -1.26098,0.07158 -1.729166,0.03765 z m 1.715348,-1.888998 c 1.292554,-0.18028 2.638556,-0.726598 3.734761,-1.515872 l 0.27451,-0.197649 0.02143,-0.342199 c 0.08383,-1.33854 0.930285,-2.413013 2.142668,-2.719849 L 19.429412,22.1026 19.57628,21.666006 C 20.575122,18.696768 19.829544,15.486687 17.630252,13.287395 17.018459,12.675601 16.318067,12.167018 15.56793,11.789856 15.243628,11.6268 14.697979,11.4 14.629993,11.4 c -0.02392,0 -0.103141,0.09664 -0.17605,0.214765 -0.259578,0.42055 -0.723314,0.843278 -1.172503,1.06882 -0.100796,0.05061 -0.323149,0.134094 -0.494118,0.185519 -0.265137,0.07975 -0.378327,0.09375 -0.769675,0.09523 -0.495207,0.0019 -0.72892,-0.04164 -1.147059,-0.21353 C 10.344131,12.534384 9.8897089,12.172796 9.5665567,11.71317 L 9.4021151,11.479282 9.1216458,11.58108 c -0.6815492,0.247373 -1.5308598,0.734604 -2.1480791,1.232306 -1.9467138,1.569755 -3.1113228,4.123481 -3.0091449,6.598379 0.034287,0.83049 0.2149944,1.711095 0.4914168,2.394725 l 0.1191702,0.294726 0.2987499,0.09607 c 0.8136035,0.26164 1.4270891,0.786628 1.7972686,1.538006 0.2032016,0.412452 0.2744665,0.682121 0.3053834,1.155583 l 0.022451,0.343818 0.2736649,0.211705 c 0.9909752,0.766611 2.336358,1.322403 3.6171434,1.494282 0.531944,0.07138 1.605652,0.07358 2.102394,0.0043 z M 4.3611316,25.927827 c 0.3935172,-0.183241 0.6506331,-0.556251 0.6506331,-0.943905 0,-0.58757 -0.3969081,-0.981424 -0.9907716,-0.983147 -0.3485498,-0.001 -0.5701821,0.07597 -0.757216,0.263002 -0.186694,0.186694 -0.2638821,0.408565 -0.2634323,0.757216 4.045e-4,0.313516 0.093223,0.549604 0.289376,0.736039 0.2659988,0.252821 0.7347753,0.327549 1.0714108,0.170795 z m 15.9441414,0.02775 c 0.216733,-0.07385 0.490164,-0.323637 0.603725,-0.551523 0.10978,-0.220299 0.12308,-0.556156 0.03255,-0.821853 -0.07611,-0.223387 -0.300358,-0.44763 -0.523745,-0.523745 -0.24551,-0.08365 -0.662664,-0.0765 -0.86486,0.01484 -0.46639,0.210678 -0.674777,0.743243 -0.50911,1.301105 0.144615,0.486973 0.736966,0.759882 1.261442,0.581175 z M 12.532537,10.883068 c 0.725875,-0.405344 0.59944,-1.6374964 -0.189903,-1.8506665 -0.220628,-0.059583 -0.683346,-0.024838 -0.854399,0.064155 -0.326358,0.1697942 -0.490337,0.4733066 -0.492629,0.9118215 -0.0013,0.248952 0.01196,0.31122 0.105188,0.494117 0.07804,0.153101 0.152547,0.240068 0.277578,0.324015 0.232426,0.156055 0.344283,0.184624 0.677694,0.173089 0.241173,-0.0083 0.315119,-0.02643 0.476471,-0.116531 z"
   id="path17" /><path
   style="fill:#fffeab;stroke-width:0.0352941"
   d="m 7.0235294,18.811859 v -4.164611 l 1.9676471,1.612896 c 1.0822055,0.887093 2.1965885,1.80098 2.4764065,2.030861 0.279818,0.22988 0.52916,0.410136 0.554094,0.400568 0.02493,-0.0096 0.351874,-0.269127 0.726534,-0.576797 0.374661,-0.30767 1.479289,-1.213789 2.45473,-2.013599 l 1.77353,-1.454199 v 4.164746 4.164747 h -0.987958 -0.987957 l -0.0091,-2.09569 -0.0091,-2.095689 -1.476944,1.230983 C 12.693089,20.693116 12.015655,21.247059 12,21.247059 c -0.01566,0 -0.693089,-0.553943 -1.505409,-1.230984 l -1.4769439,-1.230983 -0.0091,2.095689 -0.0091,2.09569 H 8.011487 7.0235294 Z"
   id="path19" /></svg>
