<?xml version="1.0" encoding="UTF-8" standalone="no"?>
<svg
   xmlns:dc="http://purl.org/dc/elements/1.1/"
   xmlns:cc="http://creativecommons.org/ns#"
   xmlns:rdf="http://www.w3.org/1999/02/22-rdf-syntax-ns#"
   xmlns:svg="http://www.w3.org/2000/svg"
   xmlns="http://www.w3.org/2000/svg"
   xmlns:sodipodi="http://sodipodi.sourceforge.net/DTD/sodipodi-0.dtd"
   xmlns:inkscape="http://www.inkscape.org/namespaces/inkscape"
   width="24px"
   height="40px"
   viewBox="0 0 24 40"
   version="1.1"
   id="svg12"
   sodipodi:docname="ic-nav-settings.svg"
   inkscape:version="1.0.2-2 (e86c870879, 2021-01-15)">
  <metadata
     id="metadata18">
    <rdf:RDF>
      <cc:Work
         rdf:about="">
        <dc:format>image/svg+xml</dc:format>
        <dc:type
           rdf:resource="http://purl.org/dc/dcmitype/StillImage" />
      </cc:Work>
    </rdf:RDF>
  </metadata>
  <defs
     id="defs16" />
  <sodipodi:namedview
     pagecolor="#ffffff"
     bordercolor="#666666"
     borderopacity="1"
     objecttolerance="10"
     gridtolerance="10"
     guidetolerance="10"
     inkscape:pageopacity="0"
     inkscape:pageshadow="2"
     inkscape:window-width="1920"
     inkscape:window-height="1017"
     id="namedview14"
     showgrid="false"
     inkscape:zoom="21.25"
     inkscape:cx="12"
     inkscape:cy="20"
     inkscape:window-x="-8"
     inkscape:window-y="-8"
     inkscape:window-maximized="1"
     inkscape:current-layer="svg12" />
  <!-- Generator: Sketch 52.6 (67491) - http://www.bohemiancoding.com/sketch -->
  <title
     id="title2">Settings</title>
  <desc
     id="desc4">Created with Sketch.</desc>
  <g
     id="Settings"
     stroke="none"
     stroke-width="1"
     fill="none"
     fill-rule="evenodd">
    <g
       id="Group_8818"
       transform="translate(1.000000, 13.000000)"
       fill="#938DA5"
       fill-rule="nonzero">
      <g
         id="Group_8816">
        <path
           d="M13.9,22 L8.1,22 L7.787,18.864 L7.72,18.837 L5.281,20.837 L1.167,16.725 L3.167,14.285 L3.139,14.219 L0,13.9 L0,8.1 L3.135,7.786 L3.163,7.72 L1.163,5.28 L5.276,1.168 L7.715,3.168 L7.782,3.141 L8.1,0 L13.9,0 L14.213,3.136 L14.28,3.163 L16.719,1.163 L20.828,5.27 L18.828,7.71 L18.856,7.776 L22,8.1 L22,13.9 L18.865,14.214 L18.837,14.28 L20.837,16.72 L16.728,20.827 L14.289,18.827 L14.222,18.854 L13.9,22 Z M9.9,20 L12.1,20 L12.361,17.39 L12.987,17.19 C13.3287124,17.08012 13.660554,16.9416296 13.979,16.776 L14.562,16.476 L16.595,18.14 L18.143,16.591 L16.479,14.556 L16.779,13.972 C16.9446037,13.6542337 17.0830952,13.3230586 17.193,12.982 L17.393,12.357 L20,12.1 L20,9.9 L17.39,9.639 L17.19,9.014 C17.0800952,8.67294144 16.9416037,8.3417663 16.776,8.024 L16.476,7.44 L18.138,5.41 L16.59,3.861 L14.557,5.525 L13.974,5.225 C13.655552,5.05937466 13.3237108,4.92088448 12.982,4.811 L12.356,4.611 L12.1,2 L9.9,2 L9.639,4.61 L9.013,4.81 C8.67128919,4.91988448 8.33944799,5.05837466 8.021,5.224 L7.438,5.524 L5.41,3.861 L3.862,5.41 L5.526,7.445 L5.226,8.029 C5.06039627,8.3467663 4.92190485,8.67794144 4.812,9.019 L4.612,9.644 L2,9.9 L2,12.1 L4.61,12.361 L4.81,12.986 C4.91990485,13.3270586 5.05839627,13.6582337 5.224,13.976 L5.524,14.56 L3.862,16.59 L5.41,18.139 L7.443,16.475 L8.026,16.775 C8.34444598,16.9406296 8.67628755,17.07912 9.018,17.189 L9.644,17.389 L9.9,20 Z"
           id="Path_18871" />
      </g>
      <g
         id="Group_8817"
         transform="translate(7.000000, 7.000000)">
        <path
           d="M4,8 C1.790861,8 0,6.209139 0,4 C0,1.790861 1.790861,0 4,0 C6.209139,0 8,1.790861 8,4 C8,5.06086596 7.57857264,6.07828161 6.82842712,6.82842712 C6.07828161,7.57857264 5.06086596,8 4,8 Z M4,2 C2.8954305,2 2,2.8954305 2,4 C2,5.1045695 2.8954305,6 4,6 C5.1045695,6 6,5.1045695 6,4 C6,2.8954305 5.1045695,2 4,2 Z"
           id="Path_18872" />
      </g>
    </g>
  </g>
  <path
     style="fill:#fffeab;stroke-width:0.0470588"
     d="m 9.1086659,34.811765 c -0.013756,-0.08412 -0.078729,-0.714118 -0.144385,-1.4 -0.1392814,-1.455022 -0.1586404,-1.6 -0.2136447,-1.6 -0.0226,0 -0.5853708,0.446454 -1.2506009,0.99212 L 6.2905256,33.796005 4.2532401,31.759124 C 3.0211284,30.527256 2.2305882,29.702736 2.2529809,29.672886 c 0.020364,-0.02715 0.4641275,-0.57124 0.9861403,-1.209098 0.5220127,-0.637858 0.9491141,-1.181165 0.9491141,-1.207349 0,-0.05624 -0.082991,-0.06742 -1.6470588,-0.221991 -0.66,-0.06523 -1.2688236,-0.129736 -1.3529412,-0.143358 L 1.0352941,26.866323 V 24 21.133677 l 0.1529412,-0.02501 c 0.084118,-0.01376 0.7141176,-0.07873 1.4,-0.144385 1.4646163,-0.1402 1.6,-0.158468 1.6,-0.21589 0,-0.02384 -0.446235,-0.586825 -0.9916332,-1.251088 L 2.2049689,18.289551 4.2413635,16.252753 c 1.2289196,-1.229163 2.0559654,-2.022176 2.0857509,-1.999923 0.027146,0.02028 0.5715948,0.464044 1.2098865,0.98614 0.6382918,0.522096 1.1815986,0.949265 1.2073487,0.949265 0.055397,0 0.066886,-0.08555 0.2212029,-1.647059 0.065225,-0.66 0.1297355,-1.268823 0.1433571,-1.352941 l 0.024767,-0.152941 H 12 14.866323 l 0.02501,0.152941 c 0.01376,0.08412 0.07873,0.714118 0.144385,1.4 0.1402,1.464617 0.158468,1.6 0.21589,1.6 0.02384,0 0.586825,-0.446235 1.251088,-0.991633 l 1.207752,-0.991633 2.036801,2.036398 2.036802,2.036398 -0.174379,0.21391 c -0.09591,0.11765 -0.531177,0.648094 -0.967263,1.178765 -0.767553,0.934029 -0.864473,1.06436 -0.822625,1.106208 0.01081,0.01081 0.654011,0.08399 1.429343,0.162623 0.775333,0.07864 1.478519,0.154547 1.562637,0.16869 l 0.152941,0.02572 V 24 26.866323 l -0.152941,0.02501 c -0.08412,0.01376 -0.714118,0.07873 -1.4,0.144385 -1.464424,0.140182 -1.6,0.158471 -1.6,0.215844 0,0.02381 0.446451,0.586582 0.992115,1.250606 l 0.992115,1.207316 -2.036068,2.036471 -2.036068,2.036472 -0.167812,-0.133237 c -0.0923,-0.07328 -0.623106,-0.50815 -1.179576,-0.966375 -0.981369,-0.808106 -1.111067,-0.905082 -1.153598,-0.862552 -0.01107,0.01107 -0.08451,0.654274 -0.163203,1.429343 -0.07869,0.775069 -0.154387,1.47804 -0.168212,1.562158 l -0.02514,0.152941 H 12 9.1336767 Z m 4.0355621,-2.02353 c 0.01528,-0.135882 0.07464,-0.725469 0.131919,-1.310194 l 0.104143,-1.063135 0.474561,-0.153634 c 0.261008,-0.0845 0.753518,-0.286821 1.094466,-0.449603 l 0.619906,-0.295967 0.862447,0.706442 c 0.474346,0.388544 0.932713,0.760536 1.018594,0.82665 l 0.156145,0.120206 0.773266,-0.7722 c 0.425296,-0.424711 0.773266,-0.786423 0.773266,-0.803804 0,-0.01738 -0.367653,-0.481351 -0.817007,-1.031042 l -0.817007,-0.999439 0.294355,-0.616551 c 0.161895,-0.339104 0.36464,-0.833611 0.450543,-1.098905 0.108311,-0.334494 0.178366,-0.482416 0.228535,-0.482557 0.03979,-9.4e-5 0.601758,-0.05286 1.248816,-0.117209 0.647059,-0.06435 1.202942,-0.117203 1.235295,-0.117444 0.0454,-3.29e-4 0.05882,-0.25663 0.05882,-1.12337 v -1.122933 l -0.247059,-0.02777 c -0.135882,-0.01528 -0.725469,-0.07464 -1.310194,-0.131919 L 18.414906,22.61971 18.261272,22.145149 c -0.0845,-0.261008 -0.286558,-0.752971 -0.449018,-1.093251 l -0.295383,-0.618689 0.818035,-0.999265 c 0.449919,-0.549596 0.818035,-1.012128 0.818035,-1.02785 0,-0.03806 -1.519949,-1.559035 -1.557981,-1.559035 -0.0163,0 -0.47956,0.368322 -1.029464,0.818493 l -0.999824,0.818494 -0.566076,-0.274403 c -0.311341,-0.150922 -0.806558,-0.353507 -1.100483,-0.45019 -0.380005,-0.124998 -0.534534,-0.197221 -0.534845,-0.249973 -2.4e-4,-0.0408 -0.05309,-0.603598 -0.117443,-1.250656 -0.06435,-0.647059 -0.117097,-1.202942 -0.117209,-1.235295 -1.58e-4,-0.04541 -0.256272,-0.05882 -1.123137,-0.05882 h -1.122933 l -0.02777,0.247059 c -0.01528,0.135882 -0.07464,0.725469 -0.131919,1.310194 l -0.104143,1.063135 -0.474561,0.153634 c -0.2610083,0.0845 -0.7529711,0.286558 -1.0932506,0.449018 L 8.4332089,18.483129 7.433944,17.665094 C 6.8843482,17.215175 6.4213416,16.847059 6.40504,16.847059 c -0.016302,0 -0.3762202,0.347059 -0.7998188,0.771242 C 5.053887,18.170396 4.846185,18.407744 4.8742584,18.453595 4.8958277,18.488824 5.2511213,18.930588 5.6638,19.435294 6.0764781,19.94 6.4299247,20.374118 6.4492362,20.4 c 0.019312,0.02588 -0.089208,0.301176 -0.2411538,0.611765 -0.1519459,0.310588 -0.3534513,0.802941 -0.4477902,1.094117 -0.1254625,0.387242 -0.1921316,0.52952 -0.2482612,0.529813 -0.042205,2.2e-4 -0.5955604,0.05277 -1.2296781,0.116769 -0.6341176,0.064 -1.19,0.116764 -1.2352941,0.117247 -0.076106,8.09e-4 -0.082353,0.08606 -0.082353,1.12381 v 1.122933 l 0.2470588,0.02777 c 0.1358824,0.01528 0.7247883,0.07457 1.30868,0.131769 l 1.061621,0.103993 0.1807762,0.535407 c 0.099427,0.294474 0.3023722,0.786252 0.4509901,1.092841 l 0.2702136,0.557434 -0.8184936,0.999824 c -0.4501712,0.549904 -0.8184932,1.012688 -0.8184932,1.02841 0,0.03806 1.5199497,1.559035 1.5579812,1.559035 0.016302,0 0.47956,-0.368322 1.0294635,-0.818493 l 0.9998246,-0.81849 0.5691139,0.275876 c 0.3130127,0.151731 0.8082301,0.353169 1.1004831,0.447639 0.388888,0.125707 0.531486,0.192339 0.531807,0.2485 2.35e-4,0.0422 0.05309,0.606149 0.117443,1.253207 0.06435,0.647059 0.117097,1.202942 0.117209,1.235295 1.42e-4,0.04541 0.256272,0.05882 1.123137,0.05882 h 1.122933 z"
     id="path20" />
  <path
     style="fill:#fffeab;stroke-width:0.0470588"
     d="m 11.623529,27.947022 c -1.162485,-0.09935 -2.2484235,-0.743554 -2.9142479,-1.728801 -0.900377,-1.332324 -0.900377,-3.104119 0,-4.436442 1.2239157,-1.811077 3.7021149,-2.293541 5.5089399,-1.072498 1.100062,0.743416 1.740367,1.9521 1.740367,3.285239 0,2.358984 -1.969487,4.15467 -4.335059,3.952502 z m 0.868943,-1.99563 c 0.391801,-0.10205 0.694854,-0.280489 0.969407,-0.570788 1.10977,-1.173419 0.454534,-3.094982 -1.149023,-3.36966 -1.317145,-0.225617 -2.5284,0.979684 -2.303568,2.292244 0.204425,1.193422 1.338712,1.946302 2.483184,1.648204 z"
     id="path22" />
</svg>
