<?xml version="1.0" encoding="UTF-8" standalone="no"?>
<svg
   xmlns:dc="http://purl.org/dc/elements/1.1/"
   xmlns:cc="http://creativecommons.org/ns#"
   xmlns:rdf="http://www.w3.org/1999/02/22-rdf-syntax-ns#"
   xmlns:svg="http://www.w3.org/2000/svg"
   xmlns="http://www.w3.org/2000/svg"
   xmlns:sodipodi="http://sodipodi.sourceforge.net/DTD/sodipodi-0.dtd"
   xmlns:inkscape="http://www.inkscape.org/namespaces/inkscape"
   version="1.1"
   id="Layer_1"
   x="0px"
   y="0px"
   viewBox="0 0 24 40"
   style="enable-background:new 0 0 24 40;"
   xml:space="preserve"
   sodipodi:docname="ic-nav-receive-active.svg"
   inkscape:version="1.0.2-2 (e86c870879, 2021-01-15)"><metadata
   id="metadata18"><rdf:RDF><cc:Work
       rdf:about=""><dc:format>image/svg+xml</dc:format><dc:type
         rdf:resource="http://purl.org/dc/dcmitype/StillImage" /></cc:Work></rdf:RDF></metadata><defs
   id="defs16" /><sodipodi:namedview
   pagecolor="#ffffff"
   bordercolor="#666666"
   borderopacity="1"
   objecttolerance="10"
   gridtolerance="10"
   guidetolerance="10"
   inkscape:pageopacity="0"
   inkscape:pageshadow="2"
   inkscape:window-width="1920"
   inkscape:window-height="1017"
   id="namedview14"
   showgrid="false"
   inkscape:zoom="21.25"
   inkscape:cx="12"
   inkscape:cy="20"
   inkscape:window-x="-8"
   inkscape:window-y="-8"
   inkscape:window-maximized="1"
   inkscape:current-layer="Layer_1" />
<style
   type="text/css"
   id="style2">
	.st0{fill:none;}
	.st1{fill-rule:evenodd;clip-rule:evenodd;fill:#932178;}
</style>
<desc
   id="desc4">Created with Sketch.</desc>
<g
   id="Receive-off">
	<g
   id="ic-receive-on"
   transform="translate(-1.000000, 11.000000)">
		<polygon
   id="Rectangle_4413"
   class="st0"
   points="0,0 26,0 26,26 0,26   " />
		<g
   id="Group_8987"
   transform="translate(2.000000, 2.000000)">
			<g
   id="Group_8986">
				<polygon
   id="Path_18953"
   class="st1"
   points="18.2,10.7 16.8,9.3 12,13.7 12,0 10,0 10,13.7 5.2,9.3 3.8,10.7 11,17.4     " />
				<polygon
   id="Path_18954"
   class="st1"
   points="20,15 20,20 2,20 2,15 0,15 0,22 22,22 22,15     " />
			</g>
		</g>
	</g>
</g>
<path
   style="fill:#fffeab;stroke-width:0.0470588"
   d="m 8.4091836,27.023768 -3.567287,-3.324089 0.6800709,-0.680071 0.6800709,-0.680071 2.3930985,2.19386 2.3930981,2.193859 0.01192,-6.845981 0.01192,-6.845981 H 12 12.98792 l 0.01192,6.845981 0.01192,6.845981 2.393098,-2.193859 2.393098,-2.19386 0.680135,0.680134 0.680134,0.680134 -3.561101,3.314803 c -1.958605,1.823142 -3.574501,3.318954 -3.59088,3.324027 -0.01638,0.0051 -1.635057,-1.486618 -3.5970654,-3.314867 z"
   id="path20" /><path
   style="fill:#fffeab;stroke-width:0.0470588"
   d="M 1.0352941,31.482353 V 28 H 2 2.9647059 v 2.517647 2.517647 H 12 21.035294 V 30.517647 28 H 22 22.964706 v 3.482353 3.482353 H 12 1.0352941 Z"
   id="path22" /></svg>
