<?xml version="1.0" encoding="UTF-8" standalone="no"?>
<svg
   xmlns:dc="http://purl.org/dc/elements/1.1/"
   xmlns:cc="http://creativecommons.org/ns#"
   xmlns:rdf="http://www.w3.org/1999/02/22-rdf-syntax-ns#"
   xmlns:svg="http://www.w3.org/2000/svg"
   xmlns="http://www.w3.org/2000/svg"
   xmlns:sodipodi="http://sodipodi.sourceforge.net/DTD/sodipodi-0.dtd"
   xmlns:inkscape="http://www.inkscape.org/namespaces/inkscape"
   version="1.1"
   id="Layer_1"
   x="0px"
   y="0px"
   viewBox="0 0 24 40"
   style="enable-background:new 0 0 24 40;"
   xml:space="preserve"
   sodipodi:docname="ic-nav-address-active.svg"
   inkscape:version="1.0.2-2 (e86c870879, 2021-01-15)"><metadata
   id="metadata15"><rdf:RDF><cc:Work
       rdf:about=""><dc:format>image/svg+xml</dc:format><dc:type
         rdf:resource="http://purl.org/dc/dcmitype/StillImage" /></cc:Work></rdf:RDF></metadata><defs
   id="defs13" /><sodipodi:namedview
   pagecolor="#ffffff"
   bordercolor="#666666"
   borderopacity="1"
   objecttolerance="10"
   gridtolerance="10"
   guidetolerance="10"
   inkscape:pageopacity="0"
   inkscape:pageshadow="2"
   inkscape:window-width="1920"
   inkscape:window-height="1017"
   id="namedview11"
   showgrid="false"
   inkscape:zoom="21.25"
   inkscape:cx="12"
   inkscape:cy="20"
   inkscape:window-x="-8"
   inkscape:window-y="-8"
   inkscape:window-maximized="1"
   inkscape:current-layer="Layer_1" />
<style
   type="text/css"
   id="style2">
	.st0{fill:#932178;}
</style>
<desc
   id="desc4">Created with Sketch.</desc>
<g
   id="Address-Active">
	<g
   id="Group-2"
   transform="translate(3.000000, 12.000000)">
		<path
   id="Path_18863"
   class="st0"
   d="M4,0H0v22h18V0H4z M2,20V2h1v18H2z M16,20H5V2h11V20z" />
		<path
   id="Path_18864"
   class="st0"
   d="M15,4H6v6h9V4z M13,8H8V6h5V8z" />
	</g>
</g>
<path
   style="fill:#fffeab;stroke-width:0.0470588"
   d="M 3.0117647,22.988235 V 12 H 12 20.988235 V 22.988235 33.976471 H 12 3.0117647 Z m 3.0117647,0 V 13.976471 H 5.5058824 4.9882353 V 22.988235 32 h 0.5176471 0.517647 z m 12.9882356,0 V 13.976471 H 13.505882 8 V 22.988235 32 h 5.505882 5.505883 z"
   id="path17" /><path
   style="fill:#fffeab;stroke-width:0.0470588"
   d="M 9.0352941,18.988235 V 16 h 4.4705879 4.470589 v 2.988235 2.988236 H 13.505882 9.0352941 Z m 6.9647059,0 V 17.976471 H 13.482353 10.964706 V 18.988235 20 H 13.482353 16 Z"
   id="path19" /></svg>
