<?xml version="1.0" encoding="UTF-8" standalone="no"?>
<svg
   xmlns:dc="http://purl.org/dc/elements/1.1/"
   xmlns:cc="http://creativecommons.org/ns#"
   xmlns:rdf="http://www.w3.org/1999/02/22-rdf-syntax-ns#"
   xmlns:svg="http://www.w3.org/2000/svg"
   xmlns="http://www.w3.org/2000/svg"
   xmlns:sodipodi="http://sodipodi.sourceforge.net/DTD/sodipodi-0.dtd"
   xmlns:inkscape="http://www.inkscape.org/namespaces/inkscape"
   version="1.1"
   id="Layer_1"
   x="0px"
   y="0px"
   viewBox="0 0 24 30"
   style="enable-background:new 0 0 24 30;"
   xml:space="preserve"
   sodipodi:docname="ic-nav-wss-girl.svg"
   inkscape:version="1.0.2-2 (e86c870879, 2021-01-15)"><metadata
   id="metadata59"><rdf:RDF><cc:Work
       rdf:about=""><dc:format>image/svg+xml</dc:format><dc:type
         rdf:resource="http://purl.org/dc/dcmitype/StillImage" /></cc:Work></rdf:RDF></metadata><defs
   id="defs57" /><sodipodi:namedview
   pagecolor="#ffffff"
   bordercolor="#666666"
   borderopacity="1"
   objecttolerance="10"
   gridtolerance="10"
   guidetolerance="10"
   inkscape:pageopacity="0"
   inkscape:pageshadow="2"
   inkscape:window-width="1920"
   inkscape:window-height="1017"
   id="namedview55"
   showgrid="false"
   inkscape:zoom="28.333333"
   inkscape:cx="12"
   inkscape:cy="15"
   inkscape:window-x="-8"
   inkscape:window-y="-8"
   inkscape:window-maximized="1"
   inkscape:current-layer="Layer_1" />
<style
   type="text/css"
   id="style2">
	.st0{fill:#FFFEAB;}
	.st1{fill:#060909;}
</style>
<g
   id="Layer_1_1_"
   transform="matrix(1.396604,0,0,1.1310425,-2.181322,-3.4464182)">
	<g
   id="Layer_2_1_">
		<path
   d="M 15.2,26.3 H 5.6 L 7.9,15.1 C 6.4,14.2 5.5,12.6 5.5,10.9 c 0,-2.7 2.2,-4.8 4.8,-4.8 2.7,0 4.8,2.2 4.8,4.8 0,1.7 -0.9,3.3 -2.4,4.2 z"
   id="path4" />
		<path
   class="st0"
   d="m 12.4,14.6 -0.2,0.1 2.3,10.9 h -8 L 8.8,14.7 8.6,14.6 C 7.2,13.9 6.4,12.4 6.4,10.9 c 0,-2.3 1.9,-4.2 4.2,-4.2 2.3,0 4.2,1.9 4.2,4.2 -0.2,1.5 -1.1,3 -2.4,3.7 z"
   id="path6" />
	</g>
</g>
<g
   id="g52">
	<polygon
   class="st1"
   points="23,8.2 23,8.2 23,8.2 23,8.2 23,8.2 23,8.2 23,8.2  "
   id="polygon10" />
	<path
   class="st1"
   d="M23,8.2C22.9,8.2,22.9,8.1,23,8.2C22.9,8.1,22.9,8.1,23,8.2C22.9,8.2,22.9,8.2,23,8.2L23,8.2L23,8.2L23,8.2   L23,8.2z"
   id="path12" />
	<path
   class="st1"
   d="M23,8.2C23,8.3,23,8.3,23,8.2C23,8.3,23.1,8.3,23,8.2L23,8.2z"
   id="path14" />
	<polygon
   class="st1"
   points="20.5,3.7 20.5,3.7 20.6,3.7  "
   id="polygon16" />
	<path
   class="st1"
   d="M9.3,5.2L9.3,5.2L9.3,5.2z"
   id="path18" />
	<path
   class="st1"
   d="M21.6,8.3L21.6,8.3L21.6,8.3z"
   id="path20" />
	
	<path
   class="st1"
   d="M22.8,8C22.8,8,22.7,8,22.8,8C22.7,8,22.8,8.1,22.8,8C22.8,8.1,22.8,8.1,22.8,8L22.8,8z"
   id="path24" />
	<path
   class="st1"
   d="M22.8,8.1L22.8,8.1C22.8,8.1,22.9,8.1,22.8,8.1C22.9,8.1,22.9,8.1,22.8,8.1L22.8,8.1z"
   id="path26" />
	<path
   class="st1"
   d="M18,3.2L18,3.2L18,3.2L18,3.2L18,3.2z"
   id="path28" />
	<path
   class="st1"
   d="M18.6,5.4L18.6,5.4L18.6,5.4C18.6,5.4,18.7,5.4,18.6,5.4z"
   id="path30" />
	<path
   class="st1"
   d="M17.1,3L17.1,3L17.1,3L17.1,3z"
   id="path32" />
	<path
   class="st1"
   d="M9.3,5.2L9.3,5.2L9.3,5.2z"
   id="path34" />
	<path
   class="st1"
   d="M9.4,5.2L9.4,5.2L9.4,5.2L9.4,5.2z"
   id="path36" />
	<path
   class="st1"
   d="M9.4,5.1L9.4,5.1L9.4,5.1z"
   id="path38" />
	<path
   class="st1"
   d="M9.4,5.1L9.4,5.1L9.4,5.1z"
   id="path40" />
	<path
   class="st1"
   d="M9.4,5L9.4,5L9.4,5z"
   id="path42" />
	<path
   class="st1"
   d="M19.7,9.2C19.7,9.2,19.7,9.1,19.7,9.2C19.7,9.1,19.7,9.1,19.7,9.2L19.7,9.2z"
   id="path44" />
	<path
   class="st1"
   d="M20.6,3.9L20.6,3.9L20.6,3.9L20.6,3.9L20.6,3.9z"
   id="path46" />
	<path
   class="st1"
   d="M19.4,6.5h0.1C19.5,6.5,19.5,6.5,19.4,6.5z"
   id="path48" />
	<path
   class="st1"
   d="M14.5,11.6L14.5,11.6L14.5,11.6L14.5,11.6L14.5,11.6z"
   id="path50" />
</g>
</svg>
