<?xml version="1.0" encoding="UTF-8" standalone="no"?>
<svg
   xmlns:dc="http://purl.org/dc/elements/1.1/"
   xmlns:cc="http://creativecommons.org/ns#"
   xmlns:rdf="http://www.w3.org/1999/02/22-rdf-syntax-ns#"
   xmlns:svg="http://www.w3.org/2000/svg"
   xmlns="http://www.w3.org/2000/svg"
   xmlns:sodipodi="http://sodipodi.sourceforge.net/DTD/sodipodi-0.dtd"
   xmlns:inkscape="http://www.inkscape.org/namespaces/inkscape"
   version="1.1"
   id="Layer_1"
   x="0px"
   y="0px"
   viewBox="0 0 24 40"
   style="enable-background:new 0 0 24 40;"
   xml:space="preserve"
   sodipodi:docname="ic-nav-privacy-active.svg"
   inkscape:version="1.0.2-2 (e86c870879, 2021-01-15)"><metadata
   id="metadata15"><rdf:RDF><cc:Work
       rdf:about=""><dc:format>image/svg+xml</dc:format><dc:type
         rdf:resource="http://purl.org/dc/dcmitype/StillImage" /></cc:Work></rdf:RDF></metadata><defs
   id="defs13" /><sodipodi:namedview
   pagecolor="#ffffff"
   bordercolor="#666666"
   borderopacity="1"
   objecttolerance="10"
   gridtolerance="10"
   guidetolerance="10"
   inkscape:pageopacity="0"
   inkscape:pageshadow="2"
   inkscape:window-width="1920"
   inkscape:window-height="1017"
   id="namedview11"
   showgrid="false"
   inkscape:zoom="21.25"
   inkscape:cx="12"
   inkscape:cy="20"
   inkscape:window-x="-8"
   inkscape:window-y="-8"
   inkscape:window-maximized="1"
   inkscape:current-layer="Layer_1" />
<style
   type="text/css"
   id="style2">
	.st0{fill:#932178;}
</style>
<desc
   id="desc4">Created with Sketch.</desc>
<g
   id="Privacy-Active">
	<g
   id="Group"
   transform="translate(1.000000, 13.000000)">
		<path
   id="Path_18869"
   class="st0"
   d="M20,10.1L17.8,0L11,1.2L4.2,0L2,10.1H0v2h22v-2H20z M5.8,2.3L11,3.2l5.2-0.9l1.7,7.8H4    L5.8,2.3z" />
		<path
   id="Path_18870"
   class="st0"
   d="M12,16.1h-2v-2H1v3.7c0.1,2.4,2.1,4.3,4.5,4.3c2.3-0.1,4.2-1.8,4.5-4H12c0.3,2.2,2.2,4,4.5,4    c2.4,0,4.4-1.9,4.5-4.3v-3.7h-9V16.1z M8,17.9c-0.1,1.3-1.2,2.3-2.5,2.3s-2.4-1-2.5-2.3v-1.7h5V17.9z M14,16.1h5v1.7    c-0.1,1.3-1.2,2.3-2.5,2.3s-2.4-1-2.5-2.3V16.1z" />
	</g>
</g>
<path
   style="fill:#fffeab;stroke-width:0.0470588"
   d="m 1.0352941,24.095054 v -0.9873 l 0.9970854,-0.0127 0.9970855,-0.0127 1.0891722,-4.999983 c 0.5990447,-2.749991 1.1000717,-5.010883 1.1133934,-5.024205 0.013322,-0.01332 1.5415647,0.243545 3.396095,0.570815 L 12,14.224016 15.371874,13.62898 c 1.854531,-0.32727 3.383046,-0.583864 3.3967,-0.57021 0.01365,0.01365 0.514666,2.274546 1.113361,5.024205 l 1.088534,4.999378 0.997118,0.0127 0.997119,0.0127 v 0.9873 0.987299 H 12 1.0352941 Z M 18.897448,22.976471 c -0.500856,-2.34189 -1.671498,-7.64856 -1.691718,-7.668781 -0.01527,-0.01527 -1.192813,0.173625 -2.616754,0.419772 l -2.588984,0.447542 -2.5882475,-0.44827 c -1.423536,-0.246549 -2.6014104,-0.435107 -2.6174989,-0.419019 -0.026324,0.02632 -1.8060103,7.675111 -1.8060103,7.761922 0,0.01994 3.1358,0.03625 6.9684447,0.03625 h 6.968445 z"
   id="path17" /><path
   style="fill:#fffeab;stroke-width:0.0470588"
   d="M 5.5772034,34.98073 C 4.5335876,34.757131 3.5523727,34.122309 2.9082988,33.254013 2.5812903,32.813163 2.3580724,32.363142 2.1812484,31.788235 L 2.0509835,31.364706 2.034236,29.235294 2.0174884,27.105882 h 4.4736087 4.4736089 v 1.011765 1.011765 H 12 13.035294 v -1.011765 -1.011765 h 4.470588 4.470589 l -3.77e-4,1.941177 c -1.88e-4,1.111921 -0.02123,2.071847 -0.04921,2.247059 -0.07503,0.469789 -0.337056,1.183232 -0.59139,1.610238 -0.466119,0.782574 -1.364911,1.536097 -2.229223,1.868921 -0.929736,0.358016 -2.057215,0.384935 -2.991077,0.07141 -1.481526,-0.497387 -2.707578,-1.881411 -3.024531,-3.414231 l -0.07682,-0.371635 H 11.99462 10.975396 l -0.03303,0.220275 c -0.122824,0.819045 -0.616883,1.74715 -1.2800264,2.404565 -1.085112,1.07574 -2.7100682,1.591678 -4.0851302,1.297066 z m 1.772383,-1.910835 C 8.1050325,32.794434 8.6181431,32.276108 8.9015849,31.502122 8.9914311,31.256783 9.0060499,31.101358 9.0240598,30.2 l 0.020451,-1.023529 H 6.5191264 3.9937419 l 0.014894,1.094117 0.014894,1.094118 0.1556553,0.32873 c 0.3707561,0.783005 0.9309181,1.250897 1.7502271,1.461929 0.3783942,0.09746 1.0252423,0.05853 1.4201741,-0.08547 z m 10.6860496,-0.0095 c 0.750755,-0.159091 1.383633,-0.658369 1.736316,-1.369779 l 0.204519,-0.412542 0.01555,-1.097859 0.01556,-1.097859 h -2.521439 -2.521438 v 0.88659 c 0,1.326326 0.149073,1.803029 0.752941,2.407742 0.614632,0.615491 1.461351,0.865237 2.317989,0.683707 z"
   id="path19" /></svg>
