<?xml version="1.0" encoding="UTF-8" standalone="no"?>
<svg
   xmlns:dc="http://purl.org/dc/elements/1.1/"
   xmlns:cc="http://creativecommons.org/ns#"
   xmlns:rdf="http://www.w3.org/1999/02/22-rdf-syntax-ns#"
   xmlns:svg="http://www.w3.org/2000/svg"
   xmlns="http://www.w3.org/2000/svg"
   xmlns:sodipodi="http://sodipodi.sourceforge.net/DTD/sodipodi-0.dtd"
   xmlns:inkscape="http://www.inkscape.org/namespaces/inkscape"
   width="24px"
   height="40px"
   viewBox="0 0 24 40"
   version="1.1"
   id="svg13"
   sodipodi:docname="ic-nav-send.svg"
   inkscape:version="1.0.2-2 (e86c870879, 2021-01-15)">
  <metadata
     id="metadata19">
    <rdf:RDF>
      <cc:Work
         rdf:about="">
        <dc:format>image/svg+xml</dc:format>
        <dc:type
           rdf:resource="http://purl.org/dc/dcmitype/StillImage" />
      </cc:Work>
    </rdf:RDF>
  </metadata>
  <defs
     id="defs17" />
  <sodipodi:namedview
     pagecolor="#ffffff"
     bordercolor="#666666"
     borderopacity="1"
     objecttolerance="10"
     gridtolerance="10"
     guidetolerance="10"
     inkscape:pageopacity="0"
     inkscape:pageshadow="2"
     inkscape:window-width="1920"
     inkscape:window-height="1017"
     id="namedview15"
     showgrid="false"
     inkscape:zoom="21.25"
     inkscape:cx="12"
     inkscape:cy="20"
     inkscape:window-x="-8"
     inkscape:window-y="-8"
     inkscape:window-maximized="1"
     inkscape:current-layer="svg13" />
  <!-- Generator: Sketch 52.6 (67491) - http://www.bohemiancoding.com/sketch -->
  <title
     id="title2">Send Off Copy</title>
  <desc
     id="desc4">Created with Sketch.</desc>
  <g
     id="Send-Off-Copy"
     stroke="none"
     stroke-width="1"
     fill="none"
     fill-rule="evenodd">
    <g
       id="ic-send-off"
       transform="translate(0.000000, 11.000000)">
      <g
         id="Group_8811"
         transform="translate(0.000000, 1.000000)"
         fill="#938DA5">
        <polygon
           id="Path_18865"
           points="0.352 9.1 7.562 13.606 9.014 12.154 4.914 9.59 19.714 4.283 14.407 19.083 11.842 14.983 10.391 16.434 14.9 23.648 23.025 0.975" />
        <g
           id="Group_8810"
           transform="translate(8.000000, 8.000000)">
          <polygon
             id="Rectangle_4394"
             transform="translate(3.823718, 4.176339) rotate(-45.000000) translate(-3.823718, -4.176339) "
             points="-0.176282346 3.17633883 7.82371765 3.17633883 7.82371765 5.17633883 -0.176282346 5.17633883" />
        </g>
      </g>
      <polygon
         id="Rectangle_4395"
         points="1 0 27 0 27 26 1 26" />
    </g>
  </g>
  <path
     style="fill:#fffeab;stroke-width:0.0470588"
     d="m 12.669564,32.02679 c -1.222378,-1.956054 -2.222505,-3.572551 -2.222505,-3.592214 0,-0.01966 0.312353,-0.347051 0.694117,-0.727527 l 0.694118,-0.691775 1.270588,2.04341 c 0.698824,1.123875 1.28171,2.044262 1.295302,2.045304 0.03844,0.0029 5.328899,-14.777826 5.299814,-14.806911 -0.03577,-0.03577 -14.8069827,5.264686 -14.7823943,5.304471 0.010935,0.01769 0.9300434,0.601642 2.0424627,1.297664 l 2.0225807,1.265494 -0.6912349,0.694118 c -0.3801797,0.381764 -0.7073237,0.694117 -0.7269877,0.694117 -0.019664,0 -1.6355859,-0.999769 -3.5909384,-2.221708 C 0.88763153,21.402194 0.43352649,21.104143 0.52729696,21.068673 1.2941078,20.778621 22.937601,13.039562 22.949287,13.051248 c 0.01296,0.01296 -7.895793,22.143466 -8.021594,22.44626 -0.02732,0.06575 -0.553849,-0.743523 -2.258129,-3.470718 z"
     id="path21" />
  <path
     style="fill:#fffeab;stroke-width:0.0470588"
     d="m 9.0234209,26.976382 -0.693588,-0.694747 2.7997641,-2.799467 2.799763,-2.799467 0.69402,0.694019 0.694019,0.694018 -2.800195,2.800195 -2.800195,2.800195 z"
     id="path23" />
</svg>
