<?xml version="1.0" encoding="UTF-8" standalone="no"?>
<svg
   xmlns:dc="http://purl.org/dc/elements/1.1/"
   xmlns:cc="http://creativecommons.org/ns#"
   xmlns:rdf="http://www.w3.org/1999/02/22-rdf-syntax-ns#"
   xmlns:svg="http://www.w3.org/2000/svg"
   xmlns="http://www.w3.org/2000/svg"
   xmlns:sodipodi="http://sodipodi.sourceforge.net/DTD/sodipodi-0.dtd"
   xmlns:inkscape="http://www.inkscape.org/namespaces/inkscape"
   version="1.1"
   id="Layer_1"
   x="0px"
   y="0px"
   viewBox="0 0 24 40"
   style="enable-background:new 0 0 24 40;"
   xml:space="preserve"
   sodipodi:docname="ic-nav-settings-active.svg"
   inkscape:version="1.0.2-2 (e86c870879, 2021-01-15)"><metadata
   id="metadata18"><rdf:RDF><cc:Work
       rdf:about=""><dc:format>image/svg+xml</dc:format><dc:type
         rdf:resource="http://purl.org/dc/dcmitype/StillImage" /></cc:Work></rdf:RDF></metadata><defs
   id="defs16" /><sodipodi:namedview
   pagecolor="#ffffff"
   bordercolor="#666666"
   borderopacity="1"
   objecttolerance="10"
   gridtolerance="10"
   guidetolerance="10"
   inkscape:pageopacity="0"
   inkscape:pageshadow="2"
   inkscape:window-width="1920"
   inkscape:window-height="1017"
   id="namedview14"
   showgrid="false"
   inkscape:zoom="21.25"
   inkscape:cx="12"
   inkscape:cy="20"
   inkscape:window-x="-8"
   inkscape:window-y="-8"
   inkscape:window-maximized="1"
   inkscape:current-layer="Layer_1" />
<style
   type="text/css"
   id="style2">
	.st0{fill:#932178;}
</style>
<desc
   id="desc4">Created with Sketch.</desc>
<g
   id="Artboard">
	<g
   id="ic_settings-active"
   transform="translate(1.000000, 13.000000)">
		<g
   id="Group_8818">
			<g
   id="Group_8816">
				<path
   id="Path_18871"
   class="st0"
   d="M13.9,22H8.1l-0.3-3.1l-0.1,0l-2.4,2l-4.1-4.1l2-2.4l0-0.1L0,13.9V8.1l3.1-0.3l0-0.1      l-2-2.4l4.1-4.1l2.4,2l0.1,0L8.1,0h5.8l0.3,3.1l0.1,0l2.4-2l4.1,4.1l-2,2.4l0,0.1L22,8.1v5.8l-3.1,0.3l0,0.1l2,2.4l-4.1,4.1      l-2.4-2l-0.1,0L13.9,22z M9.9,20h2.2l0.3-2.6l0.6-0.2c0.3-0.1,0.7-0.2,1-0.4l0.6-0.3l2,1.7l1.5-1.5l-1.7-2l0.3-0.6      c0.2-0.3,0.3-0.6,0.4-1l0.2-0.6l2.6-0.3V9.9l-2.6-0.3L17.2,9c-0.1-0.3-0.2-0.7-0.4-1l-0.3-0.6l1.7-2l-1.5-1.5l-2,1.7L14,5.2      c-0.3-0.2-0.7-0.3-1-0.4l-0.6-0.2L12.1,2H9.9L9.6,4.6L9,4.8C8.7,4.9,8.3,5.1,8,5.2L7.4,5.5l-2-1.7L3.9,5.4l1.7,2L5.2,8      C5.1,8.3,4.9,8.7,4.8,9L4.6,9.6L2,9.9v2.2l2.6,0.3L4.8,13c0.1,0.3,0.2,0.7,0.4,1l0.3,0.6l-1.7,2l1.5,1.5l2-1.7L8,16.8      c0.3,0.2,0.7,0.3,1,0.4l0.6,0.2L9.9,20z" />
			</g>
			<g
   id="Group_8817"
   transform="translate(7.000000, 7.000000)">
				<path
   id="Path_18872"
   class="st0"
   d="M4,8C1.8,8,0,6.2,0,4s1.8-4,4-4s4,1.8,4,4c0,1.1-0.4,2.1-1.2,2.8S5.1,8,4,8z M4,2      C2.9,2,2,2.9,2,4s0.9,2,2,2s2-0.9,2-2S5.1,2,4,2z" />
			</g>
		</g>
	</g>
</g>
<path
   style="fill:#fffeab;stroke-width:0.0470588"
   d="m 9.1123082,34.835294 c -0.01352,-0.07118 -0.083294,-0.761827 -0.1550517,-1.534778 -0.088251,-0.950607 -0.1488796,-1.412431 -0.1873624,-1.427198 -0.031291,-0.01201 -0.5920348,0.424525 -1.2460979,0.970072 -0.6540626,0.545547 -1.2010508,0.991904 -1.2155294,0.991904 -0.014478,0 -0.9345812,-0.908441 -2.044673,-2.018758 L 2.2452451,29.797778 3.2285049,28.614575 c 0.5407929,-0.650762 0.989961,-1.213328 0.9981513,-1.250149 0.019563,-0.08795 0.024543,-0.08706 -1.5913621,-0.282073 C 1.8717647,26.990209 1.1994118,26.904464 1.1411765,26.891808 L 1.0352941,26.868795 V 24.002842 21.13689 l 0.1294118,-0.02458 c 0.071176,-0.01352 0.7618267,-0.08329 1.5347783,-0.155052 0.950607,-0.08825 1.412431,-0.148879 1.4271982,-0.187362 0.012008,-0.03129 -0.4245251,-0.592037 -0.9700724,-1.2461 -0.5455473,-0.654062 -0.9919041,-1.201051 -0.9919041,-1.215529 0,-0.01448 0.9095804,-0.93572 2.0212898,-2.047204 1.8867191,-1.886337 2.0269215,-2.016036 2.1058824,-1.948114 0.6869915,0.590944 2.3221026,1.922345 2.3608574,1.922345 0.070475,0 0.075443,-0.03 0.2649116,-1.6 0.092144,-0.763529 0.1778889,-1.435882 0.1905454,-1.494118 l 0.023012,-0.105882 h 2.8645905 2.86459 l 0.02407,0.105882 c 0.01324,0.05824 0.08367,0.748902 0.156508,1.534814 0.08953,0.966028 0.150832,1.435993 0.189231,1.450728 0.03124,0.01199 0.591942,-0.424561 1.246005,-0.970108 0.654062,-0.545547 1.201051,-0.991904 1.215529,-0.991904 0.01448,0 0.93572,0.90958 2.047204,2.02129 1.886337,1.886719 2.016036,2.026921 1.948114,2.105882 -0.590944,0.686992 -1.922345,2.322103 -1.922345,2.360858 0,0.07047 0.03,0.07544 1.6,0.264911 0.763529,0.09214 1.435882,0.177889 1.494118,0.190545 l 0.105882,0.02301 v 2.86459 2.86459 l -0.105882,0.02407 c -0.05824,0.01324 -0.748902,0.08367 -1.534815,0.156508 -0.966027,0.08953 -1.435992,0.150832 -1.450727,0.189231 -0.01199,0.03124 0.424561,0.591942 0.970108,1.246005 0.545547,0.654062 0.991904,1.201051 0.991904,1.215529 0,0.01448 -0.908622,0.934763 -2.019161,2.045076 L 17.796966,33.755554 16.61602,32.77189 c -0.64952,-0.541014 -1.211905,-0.990364 -1.249745,-0.998554 -0.09012,-0.01951 -0.08829,-0.02976 -0.283927,1.591362 -0.09214,0.763529 -0.177889,1.435882 -0.190545,1.494118 l -0.02301,0.105882 H 12.002842 9.1368899 Z M 13.129412,32.986 c 0,-0.02711 0.06353,-0.59076 0.141176,-1.25255 0.07765,-0.661791 0.141177,-1.227865 0.141177,-1.257942 0,-0.03008 0.280588,-0.146938 0.623529,-0.259691 0.342941,-0.112752 0.829615,-0.308025 1.081498,-0.43394 0.251883,-0.125915 0.46816,-0.228936 0.480616,-0.228936 0.01246,0 0.457432,0.370588 0.988835,0.82353 0.531404,0.452941 0.982434,0.823529 1.002289,0.823529 0.01985,0 0.373088,-0.337482 0.784962,-0.74996 0.685295,-0.686301 0.743209,-0.757203 0.682275,-0.835294 -0.03662,-0.04693 -0.419375,-0.500671 -0.850561,-1.008304 l -0.783974,-0.92297 0.271655,-0.512324 c 0.159699,-0.301181 0.344133,-0.746585 0.447516,-1.080742 l 0.17586,-0.568417 1.135985,-0.128948 c 0.624792,-0.07092 1.215397,-0.140781 1.312456,-0.155244 l 0.17647,-0.0263 v -1.170456 c 0,-0.904514 -0.01337,-1.17066 -0.05882,-1.171352 -0.03235,-4.94e-4 -0.598824,-0.06383 -1.258824,-0.140738 -0.66,-0.07691 -1.224483,-0.140039 -1.254407,-0.14028 -0.02994,-2.35e-4 -0.06935,-0.111544 -0.08764,-0.247498 -0.05174,-0.384667 -0.247441,-0.956595 -0.498873,-1.457968 -0.126316,-0.251883 -0.229666,-0.46816 -0.229666,-0.480616 0,-0.01246 0.370588,-0.457432 0.82353,-0.988835 C 18.829412,18.882353 19.2,18.431323 19.2,18.411468 c 0,-0.01985 -0.337482,-0.373088 -0.74996,-0.784962 -0.686118,-0.685112 -0.757167,-0.743152 -0.834616,-0.681801 -0.04656,0.03688 -0.490577,0.411177 -0.986704,0.831766 -0.496128,0.420588 -0.916296,0.764705 -0.933707,0.764705 -0.01741,0 -0.257678,-0.124813 -0.533924,-0.277363 -0.311396,-0.171961 -0.739217,-0.354749 -1.125795,-0.480999 -0.342941,-0.112 -0.623529,-0.228244 -0.623529,-0.258322 0,-0.03008 -0.06353,-0.596151 -0.141177,-1.257942 -0.07765,-0.661791 -0.141176,-1.225438 -0.141176,-1.25255 0,-0.03298 -0.373701,-0.04929 -1.129412,-0.04929 -0.755711,0 -1.129412,0.01631 -1.129412,0.04929 0,0.02711 -0.06353,0.590759 -0.141176,1.25255 -0.07765,0.661791 -0.141177,1.228683 -0.141177,1.259759 0,0.03108 -0.121764,0.09435 -0.270588,0.140608 -0.386431,0.120111 -1.2591661,0.474853 -1.5738748,0.639735 -0.1473957,0.07722 -0.2895553,0.140407 -0.3159096,0.140407 -0.026354,0 -0.4827021,-0.370588 -1.0141054,-0.82353 C 6.8823534,17.170588 6.4282179,16.8 6.4045671,16.8 c -0.079654,0 -1.5142933,1.569165 -1.4907448,1.630531 0.012783,0.03331 0.3841677,0.483148 0.8252982,0.999632 0.4411308,0.516484 0.802056,0.955099 0.802056,0.974698 0,0.0196 -0.083306,0.164171 -0.1851257,0.32127 -0.1858823,0.286801 -0.5321863,1.086571 -0.6891341,1.591516 -0.046258,0.148824 -0.1087236,0.270588 -0.1388134,0.270588 -0.03009,0 -0.5926931,0.06344 -1.2502296,0.140981 -0.6575364,0.07754 -1.2219913,0.141068 -1.2543443,0.141176 C 2.97811,22.870544 2.9647059,23.127948 2.9647059,24 c 0,0.872052 0.013404,1.129456 0.058824,1.129608 0.032353,9.4e-5 0.5968079,0.06364 1.2543443,0.141176 0.6575365,0.07754 1.2193223,0.140981 1.2484128,0.140981 0.029091,0 0.1451436,0.280588 0.2578961,0.623529 0.112752,0.342941 0.3080254,0.829615 0.4339402,1.081498 0.1259148,0.251883 0.228936,0.46816 0.228936,0.480616 0,0.01246 -0.3705882,0.457432 -0.8235294,0.988835 C 5.1705882,29.117647 4.8,29.568677 4.8,29.588532 c 0,0.01985 0.337482,0.373088 0.74996,0.784962 0.6861176,0.685112 0.7571666,0.743152 0.834616,0.681801 0.046561,-0.03688 0.4905774,-0.411177 0.9867045,-0.831766 0.496127,-0.420588 0.9181101,-0.764705 0.9377407,-0.764705 0.019631,0 0.259896,0.124839 0.5339233,0.27742 0.3141731,0.174935 0.7285788,0.352627 1.1217614,0.480999 0.3429411,0.111968 0.6235291,0.228187 0.6235291,0.258265 0,0.03008 0.06353,0.596151 0.141177,1.257942 0.07765,0.66179 0.141176,1.225438 0.141176,1.25255 0,0.03298 0.373701,0.04929 1.129412,0.04929 0.755711,0 1.129412,-0.01631 1.129412,-0.04929 z"
   id="path20" /><path
   style="fill:#fffeab;stroke-width:0.0470588"
   d="m 11.594085,27.945649 c -0.418448,-0.03569 -1.133853,-0.253 -1.476438,-0.448478 C 9.2072448,26.977698 8.5686545,26.210142 8.2260263,25.223529 8.0747302,24.787866 8.0707729,24.756679 8.0707729,24 c 0,-0.755987 0.00408,-0.788264 0.15482,-1.223529 0.2153153,-0.621746 0.5242835,-1.118287 0.9784373,-1.572441 1.5594498,-1.55945 4.0324898,-1.55945 5.5919398,0 0.454154,0.454154 0.763122,0.950695 0.978437,1.572441 C 15.92512,23.21167 15.92923,23.244128 15.92932,24 c 9.4e-5,0.682568 -0.01324,0.819153 -0.110113,1.129412 -0.246458,0.7893 -0.636666,1.338569 -1.340988,1.887619 -0.953866,0.743578 -1.812463,1.020025 -2.884134,0.928618 z m 0.898387,-1.994257 c 0.391801,-0.10205 0.694854,-0.280489 0.969407,-0.570788 1.10977,-1.173419 0.454534,-3.094982 -1.149023,-3.36966 -1.317145,-0.225617 -2.5284,0.979684 -2.303568,2.292244 0.204425,1.193422 1.338712,1.946302 2.483184,1.648204 z"
   id="path22" /></svg>
