<?xml version="1.0" encoding="UTF-8" standalone="no"?>
<svg
   xmlns:dc="http://purl.org/dc/elements/1.1/"
   xmlns:cc="http://creativecommons.org/ns#"
   xmlns:rdf="http://www.w3.org/1999/02/22-rdf-syntax-ns#"
   xmlns:svg="http://www.w3.org/2000/svg"
   xmlns="http://www.w3.org/2000/svg"
   xmlns:sodipodi="http://sodipodi.sourceforge.net/DTD/sodipodi-0.dtd"
   xmlns:inkscape="http://www.inkscape.org/namespaces/inkscape"
   version="1.1"
   id="Layer_1"
   x="0px"
   y="0px"
   width="24px"
   height="31px"
   viewBox="0 0 24 30"
   style="enable-background:new 0 0 24 30;"
   xml:space="preserve"
   sodipodi:docname="ic-nav-cold-staking.svg"
   inkscape:version="1.0.2-2 (e86c870879, 2021-01-15)"><metadata
   id="metadata15"><rdf:RDF><cc:Work
       rdf:about=""><dc:format>image/svg+xml</dc:format><dc:type
         rdf:resource="http://purl.org/dc/dcmitype/StillImage" /></cc:Work></rdf:RDF></metadata><defs
   id="defs13" /><sodipodi:namedview
   pagecolor="#ffffff"
   bordercolor="#666666"
   borderopacity="1"
   objecttolerance="10"
   gridtolerance="10"
   guidetolerance="10"
   inkscape:pageopacity="0"
   inkscape:pageshadow="2"
   inkscape:window-width="1920"
   inkscape:window-height="1017"
   id="namedview11"
   showgrid="false"
   inkscape:zoom="27.419355"
   inkscape:cx="12"
   inkscape:cy="15.5"
   inkscape:window-x="-8"
   inkscape:window-y="-8"
   inkscape:window-maximized="1"
   inkscape:current-layer="Layer_1" />
<style
   type="text/css"
   id="style2">
	.st0{fill:#938DA5;}
</style>
	<title
   id="title4">Cold Staking</title>
	<desc
   id="desc6">Created with Sketch.</desc>
	<path
   class="st0"
   d="M21.7,22.1l-3-1.6l2.7-0.5c0.5,0,0.8-0.5,0.5-1.1c0-0.5-0.5-0.8-1.1-0.5l-4.3,1.1l-3-1.6l3-1.6l4.3,1.1h0.3  c0.3,0,0.8-0.3,0.8-0.5c0-0.5-0.3-0.8-0.5-1.1l-2.7-0.5l3-1.6c0.5-0.3,0.5-0.8,0.3-1.1c-0.3-0.3-0.8-0.5-1.1-0.3l-3,1.6l0.8-2.4  c0-0.5-0.3-0.8-0.5-1.1c-0.5,0-1.1,0.3-1.1,0.5L16,14.8l-3,1.6v-3.3l3.3-3c0.3-0.3,0.3-0.8,0-1.1c-0.3-0.3-0.8-0.3-1.4,0L13.1,11  V7.8c0-0.5-0.3-0.8-0.8-0.8c-0.5,0-0.8,0.3-0.8,0.8V11L9.3,8.9C9,8.6,8.5,8.6,7.9,8.9c-0.3,0.3-0.3,0.8,0,1.1l3.3,3v3.3l-3-1.6  l-1.1-4.1c0-0.5-0.5-0.8-1.1-0.5c-0.5,0-0.8,0.5-0.5,1.1l0.8,2.4l-3-1.6c-0.5-0.3-1.1,0-1.1,0.3c-0.3,0.3,0,0.8,0.3,1.1l3,1.6  l-2.7,0.5c-0.5,0-0.8,0.5-0.5,1.1C2.2,16.7,2.8,17,3,17h0.3l4.3-1.1l3,1.6l-3,1.6l-4.3-1.1c-0.5,0-1.1,0.3-1.1,0.5  c0,0.5,0.3,0.8,0.5,1.1l2.7,0.5l-3,1.6c-0.5,0.3-0.5,0.8-0.3,1.1c0.3,0.3,0.5,0.5,0.8,0.5s0.3,0,0.5,0l2.7-1.6l-0.8,2.7  c0,0.5,0.3,0.8,0.5,1.1h0.3c0.3,0,0.8-0.3,0.8-0.5l1.1-4.1l3-1.6v3.3l-3.3,3c-0.3,0.3-0.3,0.8,0,1.1s0.8,0.3,1.4,0l1.9-1.9v3.3  c0,0.5,0.3,0.8,0.8,0.8c0.5,0,0.8-0.3,0.8-0.8v-3.3l1.9,1.9C15,27,15,27,15.2,27c0.3,0,0.5,0,0.5-0.3c0.3-0.3,0.3-0.8,0-1.1l-3.3-3  v-3.5l3,1.6l1.1,4.1c0,0.3,0.5,0.5,0.8,0.5h0.3c0.5,0,0.8-0.5,0.5-1.1v-2.4l3,1.6c0.3,0,0.3,0,0.5,0c0.3,0,0.5-0.3,0.8-0.5  C22.6,23,22.3,22.4,21.7,22.1z"
   id="path8" />
<path
   style="fill:#fffeab;stroke-width:0.0364706"
   d="m 11.583845,29.355871 c -0.214048,-0.05225 -0.360602,-0.15809 -0.460528,-0.332598 l -0.08979,-0.156802 -0.01044,-1.80372 -0.01044,-1.80372 -0.975168,0.974666 c -0.9611791,0.960685 -0.9788173,0.975954 -1.2295607,1.064421 -0.2699388,0.09524 -0.6618211,0.121777 -0.8336414,0.05645 -0.050404,-0.01916 -0.1582805,-0.09505 -0.2397244,-0.168625 -0.1652906,-0.14933 -0.2767928,-0.441573 -0.2376012,-0.622744 0.0654,-0.302323 0.1153288,-0.354522 1.8270372,-1.910117 L 11.01529,23.116034 v -1.656253 c 0,-0.931056 -0.01407,-1.656253 -0.03214,-1.656253 -0.03069,0 -2.950849,1.548478 -2.9854957,1.583126 -0.00918,0.0092 -0.2691427,0.956158 -0.5776912,2.104392 -0.615625,2.29099 -0.5792113,2.197142 -0.9191168,2.368825 -0.1187359,0.05997 -0.2521372,0.09118 -0.4306228,0.100731 L 5.8116334,25.974444 5.6801339,25.795306 C 5.4883585,25.534055 5.3617912,25.262864 5.339264,25.064935 5.322383,24.916616 5.3783523,24.693717 5.7215456,23.542488 5.9426777,22.80071 6.1190699,22.189266 6.1135282,22.183724 c -0.00554,-0.0055 -0.6190584,0.351089 -1.3633706,0.792512 l -1.353295,0.802588 H 3.083449 c -0.368364,0 -0.5107175,-0.05775 -0.7950306,-0.322502 -0.2114962,-0.196948 -0.2813596,-0.338738 -0.2813596,-0.571028 0,-0.222697 0.069173,-0.374943 0.2406012,-0.529548 0.078287,-0.07061 0.8152224,-0.486929 1.6376341,-0.925164 1.576683,-0.840162 1.5341515,-0.816527 1.5104902,-0.83937 -0.00836,-0.0081 -0.6163709,-0.125681 -1.3511402,-0.26136 L 2.7087001,20.083162 2.5228876,19.806581 C 2.2206498,19.356702 2.1430107,19.016877 2.3079412,18.865767 2.48294,18.705432 2.9587823,18.52663 3.20809,18.527527 c 0.07158,2.56e-4 1.0902335,0.246177 2.2636747,0.546487 l 2.1335294,0.546019 1.4872648,-0.792664 c 0.8179959,-0.435965 1.4908781,-0.805995 1.4952941,-0.822289 0.0044,-0.01629 -0.6653198,-0.38887 -1.4883024,-0.827946 l -1.4963317,-0.798321 -2.1261602,0.5453 C 3.0736237,17.540525 3.028324,17.54758 2.6452941,17.36511 2.4009067,17.248688 2.3330987,17.181493 2.2721035,16.995294 c -0.1172864,-0.358038 -0.08469,-0.612391 0.1024666,-0.799548 0.1349466,-0.134946 0.07357,-0.120072 1.7569005,-0.425762 0.7572206,-0.13751 1.3767647,-0.259013 1.3767647,-0.270007 0,-0.01099 -0.6735307,-0.378798 -1.4967349,-0.81734 C 2.4134306,13.831304 2.3620369,13.796008 2.1835071,13.427215 2.0880559,13.230038 2.0794779,12.975444 2.165098,12.880834 c 0.033431,-0.03694 0.060784,-0.09236 0.060784,-0.123144 0,-0.08722 0.1724838,-0.238476 0.3486928,-0.305771 0.3403947,-0.129998 0.3873359,-0.111951 2.1275326,0.81794 0.8704829,0.465151 1.5906168,0.837808 1.6002979,0.828128 0.00968,-0.0097 -0.1896649,-0.634107 -0.4429904,-1.387613 -0.2533254,-0.753506 -0.4602313,-1.422901 -0.4597908,-1.487545 0.00111,-0.163298 0.1203036,-0.409618 0.2343752,-0.484361 0.1144458,-0.07499 0.519846,-0.194866 0.7543956,-0.223077 0.092941,-0.01118 0.2275178,-10e-4 0.2990592,0.0226 0.1688464,0.05572 0.3425723,0.255849 0.3730646,0.429755 0.03746,0.213642 1.113292,4.219167 1.1405691,4.246552 0.029704,0.02982 2.8800832,1.54894 2.9692062,1.582447 0.0602,0.02263 0.06382,-0.07016 0.06382,-1.634574 V 13.503604 L 9.538592,11.961112 C 7.734737,10.320069 7.6956697,10.277485 7.6972715,9.9540736 7.6981577,9.7751996 7.7945312,9.5327448 7.9010257,9.4414739 8.147556,9.2301853 8.8253899,9.1391404 9.0900683,9.2817647 c 0.074449,0.040118 0.648861,0.5639855 1.2764707,1.1641503 l 1.141108,1.09121 0.01823,-1.7659154 c 0.01643,-1.5912791 0.02454,-1.7774508 0.08202,-1.8825596 0.227548,-0.416118 0.93442,-0.4981074 1.270621,-0.1473781 0.195623,0.2040766 0.195986,0.2075391 0.215594,2.0564734 l 0.01824,1.7195097 0.889802,-0.990098 C 14.491547,9.982603 14.926458,9.5168273 14.968626,9.4921 15.122563,9.4018301 15.513849,9.3 15.706778,9.3 c 0.336247,0 0.570482,0.1372978 0.714923,0.4190538 0.09424,0.1838239 0.09757,0.4660242 0.0078,0.6553102 -0.04791,0.100953 -0.545419,0.575894 -1.755552,1.675903 l -1.688701,1.535027 -2.55e-4,1.669144 -2.56e-4,1.669144 0.180158,-0.09129 c 0.55496,-0.281219 2.798281,-1.490884 2.831491,-1.526823 0.02161,-0.02339 0.282654,-0.912348 0.580091,-1.975466 0.297438,-1.063118 0.555358,-1.961901 0.573155,-1.997297 0.07158,-0.142366 0.530055,-0.351302 0.887515,-0.40446 l 0.147114,-0.02188 0.189348,0.281817 c 0.204001,0.303602 0.300557,0.533491 0.300557,0.715553 0,0.06301 -0.179254,0.651772 -0.398342,1.308356 -0.219088,0.656585 -0.38623,1.19379 -0.371427,1.19379 0.0148,0 0.717671,-0.36856 1.56193,-0.819022 0.844259,-0.450463 1.577318,-0.82964 1.629019,-0.842616 0.269157,-0.06755 0.843237,0.232516 0.948593,0.495827 0.112721,0.281719 0.04048,0.598559 -0.184627,0.809759 -0.05852,0.05491 -0.786812,0.462491 -1.618422,0.905743 -0.83161,0.443252 -1.524488,0.81781 -1.539729,0.832351 -0.01524,0.01454 0.575582,0.137895 1.312941,0.274119 0.737358,0.136224 1.354576,0.256195 1.371595,0.266602 0.07634,0.04668 0.393721,0.584439 0.443132,0.750824 0.08186,0.275641 0.07082,0.36026 -0.06378,0.489017 -0.204262,0.195392 -0.415752,0.282084 -0.720294,0.295256 -0.252903,0.01094 -0.434725,-0.02954 -2.411128,-0.536805 l -2.137599,-0.548634 -1.485094,0.792319 c -0.816802,0.435775 -1.485094,0.808731 -1.485094,0.82879 0,0.02006 0.668246,0.392989 1.484991,0.828735 l 1.484992,0.792265 2.010054,-0.511686 c 1.10553,-0.281427 2.116731,-0.54585 2.247113,-0.587606 0.363065,-0.116277 0.513279,-0.137584 0.679911,-0.09644 0.22043,0.05443 0.370298,0.227587 0.457417,0.528509 0.109315,0.377595 0.122235,0.659622 0.03734,0.815047 -0.08352,0.152899 -0.253457,0.276198 -0.417029,0.302573 -0.783717,0.126374 -2.830205,0.52049 -2.809254,0.541012 0.01513,0.01481 0.725,0.398808 1.5775,0.853317 0.8525,0.454509 1.599246,0.863591 1.659436,0.909071 0.166935,0.126139 0.381973,0.354376 0.443162,0.470366 0.05089,0.09646 0.0496,0.107669 -0.01784,0.1549 -0.03998,0.028 -0.158241,0.123938 -0.2628,0.213188 -0.271281,0.231562 -0.383751,0.275573 -0.704221,0.275573 h -0.275351 l -1.503814,-0.802353 c -0.827099,-0.441294 -1.50899,-0.802353 -1.515314,-0.802353 -0.0063,0 -0.0115,0.547731 -0.0115,1.21718 0,0.988711 0.01027,1.246283 0.05471,1.372232 0.122739,0.347881 0.01164,0.686605 -0.272139,0.829706 -0.320086,0.16141 -0.914861,0.08827 -1.181507,-0.145286 l -0.136002,-0.119126 -0.566407,-2.115294 c -0.311524,-1.163412 -0.5775,-2.125846 -0.591059,-2.138743 -0.03109,-0.02958 -2.8832,-1.549801 -2.969651,-1.582877 -0.06024,-0.02305 -0.06382,0.07381 -0.06382,1.723101 0,1.343717 0.01053,1.76051 0.04559,1.80374 0.02507,0.03092 0.768931,0.713003 1.653017,1.515736 0.884087,0.802734 1.642197,1.503714 1.684689,1.557735 0.183546,0.23334 0.200138,0.603514 0.03808,0.849529 -0.04988,0.07571 -0.101752,0.18232 -0.115282,0.236903 -0.03375,0.136148 -0.135632,0.18071 -0.419799,0.183607 -0.397402,0.0041 -0.551375,-0.109154 -1.690559,-1.242968 l -0.974266,-0.969673 -0.01044,1.80372 -0.01044,1.80372 -0.09978,0.169732 c -0.156354,0.265973 -0.536697,0.403874 -0.88167,0.319668 z"
   id="path17"
   transform="translate(0,-0.5)" /></svg>
