<?xml version="1.0" encoding="UTF-8" standalone="no"?>
<svg
   xmlns:dc="http://purl.org/dc/elements/1.1/"
   xmlns:cc="http://creativecommons.org/ns#"
   xmlns:rdf="http://www.w3.org/1999/02/22-rdf-syntax-ns#"
   xmlns:svg="http://www.w3.org/2000/svg"
   xmlns="http://www.w3.org/2000/svg"
   xmlns:sodipodi="http://sodipodi.sourceforge.net/DTD/sodipodi-0.dtd"
   xmlns:inkscape="http://www.inkscape.org/namespaces/inkscape"
   width="24px"
   height="40px"
   viewBox="0 0 24 40"
   version="1.1"
   id="svg13"
   sodipodi:docname="ic-nav-receive.svg"
   inkscape:version="1.0.2-2 (e86c870879, 2021-01-15)">
  <metadata
     id="metadata19">
    <rdf:RDF>
      <cc:Work
         rdf:about="">
        <dc:format>image/svg+xml</dc:format>
        <dc:type
           rdf:resource="http://purl.org/dc/dcmitype/StillImage" />
      </cc:Work>
    </rdf:RDF>
  </metadata>
  <defs
     id="defs17" />
  <sodipodi:namedview
     pagecolor="#ffffff"
     bordercolor="#666666"
     borderopacity="1"
     objecttolerance="10"
     gridtolerance="10"
     guidetolerance="10"
     inkscape:pageopacity="0"
     inkscape:pageshadow="2"
     inkscape:window-width="1920"
     inkscape:window-height="1017"
     id="namedview15"
     showgrid="false"
     inkscape:zoom="21.25"
     inkscape:cx="12"
     inkscape:cy="20"
     inkscape:window-x="-8"
     inkscape:window-y="-8"
     inkscape:window-maximized="1"
     inkscape:current-layer="svg13" />
  <!-- Generator: Sketch 52.6 (67491) - http://www.bohemiancoding.com/sketch -->
  <title
     id="title2">Receive off</title>
  <desc
     id="desc4">Created with Sketch.</desc>
  <g
     id="Receive-off"
     stroke="none"
     stroke-width="1"
     fill="none"
     fill-rule="evenodd">
    <g
       id="ic-receive-on"
       transform="translate(-1.000000, 11.000000)">
      <polygon
         id="Rectangle_4413"
         points="0 0 26 0 26 26 0 26" />
      <g
         id="Group_8987"
         transform="translate(2.000000, 2.000000)"
         fill="#938DA5">
        <g
           id="Group_8986">
          <polygon
             id="Path_18953"
             points="18.178 10.734 16.822 9.265 12 13.716 12 0 10 0 10 13.716 5.178 9.266 3.822 10.734 11 17.361" />
          <polygon
             id="Path_18954"
             points="20 15 20 20 2 20 2 15 0 15 0 22 22 22 22 15" />
        </g>
      </g>
    </g>
  </g>
  <path
     style="fill:#fffeab;stroke-width:0.0470588"
     d="M 8.4183743,27.018729 4.8602779,23.732968 5.5202925,23.017754 6.180307,22.302541 6.3254476,22.439429 c 0.079827,0.07529 1.1616112,1.073874 2.4039642,2.219079 l 2.2588232,2.082191 0.01192,-6.852702 0.01192,-6.852703 H 12 12.98792 l 0.01192,6.854794 0.01192,6.854793 2.235294,-2.060726 c 1.229412,-1.1334 2.311522,-2.133363 2.40469,-2.222142 l 0.169396,-0.161416 0.659289,0.716272 0.659289,0.716271 -3.547335,3.274607 c -1.951034,1.801033 -3.562766,3.279587 -3.581626,3.285675 -0.01886,0.0061 -1.635435,-1.467524 -3.5923877,-3.274693 z"
     id="path21" />
  <path
     style="fill:#fffeab;stroke-width:0.0470588"
     d="M 1.0352941,31.482353 V 28 H 2 2.9647059 v 2.517647 2.517647 H 12 21.035294 V 30.517647 28 H 22 22.964706 v 3.482353 3.482353 H 12 1.0352941 Z"
     id="path23" />
</svg>
