<?xml version="1.0" encoding="UTF-8" standalone="no"?>
<svg
   xmlns:dc="http://purl.org/dc/elements/1.1/"
   xmlns:cc="http://creativecommons.org/ns#"
   xmlns:rdf="http://www.w3.org/1999/02/22-rdf-syntax-ns#"
   xmlns:svg="http://www.w3.org/2000/svg"
   xmlns="http://www.w3.org/2000/svg"
   xmlns:sodipodi="http://sodipodi.sourceforge.net/DTD/sodipodi-0.dtd"
   xmlns:inkscape="http://www.inkscape.org/namespaces/inkscape"
   width="24px"
   height="40px"
   viewBox="0 0 24 40"
   version="1.1"
   id="svg14"
   sodipodi:docname="ic-nav-dashboard.svg"
   inkscape:version="1.0.2-2 (e86c870879, 2021-01-15)">
  <metadata
     id="metadata20">
    <rdf:RDF>
      <cc:Work
         rdf:about="">
        <dc:format>image/svg+xml</dc:format>
        <dc:type
           rdf:resource="http://purl.org/dc/dcmitype/StillImage" />
      </cc:Work>
    </rdf:RDF>
  </metadata>
  <defs
     id="defs18" />
  <sodipodi:namedview
     pagecolor="#ffffff"
     bordercolor="#666666"
     borderopacity="1"
     objecttolerance="10"
     gridtolerance="10"
     guidetolerance="10"
     inkscape:pageopacity="0"
     inkscape:pageshadow="2"
     inkscape:window-width="1920"
     inkscape:window-height="1017"
     id="namedview16"
     showgrid="false"
     inkscape:zoom="21.25"
     inkscape:cx="12"
     inkscape:cy="20"
     inkscape:window-x="-8"
     inkscape:window-y="-8"
     inkscape:window-maximized="1"
     inkscape:current-layer="svg14" />
  <!-- Generator: Sketch 52.6 (67491) - http://www.bohemiancoding.com/sketch -->
  <title
     id="title2">Dashboard</title>
  <desc
     id="desc4">Created with Sketch.</desc>
  <g
     id="Dashboard"
     stroke="none"
     stroke-width="1"
     fill="none"
     fill-rule="evenodd">
    <g
       id="Group"
       transform="translate(1.000000, 11.000000)"
       fill="#938DA5"
       fill-rule="nonzero">
      <g
         id="Group_8812">
        <path
           d="M10,8 L0,8 L0,0 L10,0 L10,8 Z M2,6 L8,6 L8,2 L2,2 L2,6 Z"
           id="Path_18866" />
      </g>
      <g
         id="Group_8813"
         transform="translate(12.000000, 0.000000)">
        <path
           d="M10,22 L0,22 L0,0 L10,0 L10,22 Z M2,20 L8,20 L8,2 L2,2 L2,20 Z"
           id="Path_18867" />
      </g>
      <g
         id="Group_8814"
         transform="translate(0.000000, 10.000000)">
        <path
           d="M10,12 L0,12 L0,0 L10,0 L10,12 Z M2,10 L8,10 L8,2 L2,2 L2,10 Z"
           id="Path_18868" />
      </g>
    </g>
  </g>
  <path
     style="fill:#fffeab;stroke-width:0.0470588"
     d="m 1.0352941,14.988235 v -3.97647 H 6 10.964706 v 3.97647 3.976471 H 6 1.0352941 Z m 8,0.02353 v -2.02353 H 6 2.9647059 v 2.02353 2.023529 H 6 9.0352941 Z"
     id="path22" />
  <path
     style="fill:#fffeab;stroke-width:0.0470588"
     d="M 1.0352941,27.011765 V 21.035294 H 6 10.964706 v 5.976471 5.97647 H 6 1.0352941 Z m 8,-0.02353 V 22.964706 H 6 2.9647059 v 4.023529 4.02353 H 6 9.0352941 Z"
     id="path24" />
  <path
     style="fill:#fffeab;stroke-width:0.0470588"
     d="M 13.035294,22 V 11.011765 H 18 22.964706 V 22 32.988235 H 18 13.035294 Z m 8,0 V 12.988235 H 18 14.964706 V 22 31.011765 H 18 21.035294 Z"
     id="path26" />
</svg>
