<?xml version="1.0" encoding="utf-8"?>
<!-- Generator: Adobe Illustrator 24.3.0, SVG Export Plug-In . SVG Version: 6.00 Build 0)  -->
<svg version="1.1" id="Layer_1" xmlns="http://www.w3.org/2000/svg" xmlns:xlink="http://www.w3.org/1999/xlink" x="0px" y="0px"
	 viewBox="0 0 24 24" style="enable-background:new 0 0 24 24;" xml:space="preserve">
<style type="text/css">
	.st0{fill:#D6249E;}
	.st1{fill:#FFFFFF;stroke:#FFFFFF;stroke-width:2.528191e-02;stroke-miterlimit:10;}
</style>
<circle id="XMLID_293_" class="st0" cx="11.7" cy="12.2" r="10"/>
<g id="XMLID_17_">
	<path id="Path_18985_11_" class="st1" d="M8.9,21.8C8.2,21.6,7.6,21.3,7,21v-7.9h6.2c0.2,0,0.4,0,0.6,0c2.1-0.1,3.7-1.7,3.5-3.5
		c0-0.2,0-0.3,0-0.5c-0.2-1.8-2-3-4.1-2.9h-1.9H6.9L6.7,4.9h6.8c0.2,0,0.4,0,0.6,0c3,0.1,5.3,2.3,5.2,4.8c0,0.2,0,0.3,0,0.5
		c-0.2,2.6-2.8,4.5-5.8,4.4H8.9V21.8z"/>
</g>
<g id="XMLID_16_">
	<path id="Path_18985_10_" class="st1" d="M5.4,7.8h8.3H14c0.4,0,0.7,0.2,0.7,0.5v0.1c0,0.3-0.2,0.6-0.6,0.6C14,9,14,9,14,9H5.5
		L5.4,7.8z"/>
</g>
<g id="XMLID_15_">
	<path id="Path_18985_9_" class="st1" d="M9.3,10.5h4.3h0.3c0.4,0,0.7,0.2,0.7,0.5v0.1c0,0.3-0.2,0.6-0.6,0.6h-0.1H9.4v-0.1
		L9.3,10.5z"/>
</g>
</svg>
