<?xml version="1.0" encoding="utf-8"?>
<!-- Generator: Adobe Illustrator 24.3.0, SVG Export Plug-In . SVG Version: 6.00 Build 0)  -->
<svg version="1.1" id="ic_empty_Dark_transactions" xmlns="http://www.w3.org/2000/svg" xmlns:xlink="http://www.w3.org/1999/xlink"
	 x="0px" y="0px" viewBox="0 0 100 100" style="enable-background:new 0 0 100 100;" xml:space="preserve">
<style type="text/css">
	.st0{fill:#932178;}
	.st1{fill:#A09EA5;}
	.st2{fill:#A09EA5;stroke:#A09EA5;stroke-width:0.1307;stroke-miterlimit:10;}
	.st3{fill:none;}
</style>
<g id="Group_9036">
	<path id="Path_18988" class="st0" d="M50,26c-13.3,0-24,10.7-24,24s10.7,24,24,24s24-10.7,24-24S63.3,26,50,26z M50,68
		c-9.9,0-18-8.1-18-18s8.1-18,18-18s18,8.1,18,18S59.9,68,50,68z"/>
	<g id="Group_9035">
		<g id="Group_9034">
			<path id="Path_18990" class="st1" d="M50,31c-10.5,0-19,8.5-19,19s8.5,19,19,19s19-8.5,19-19S60.5,31,50,31z M50,67
				c-9.4,0-17-7.6-17-17s7.6-17,17-17s17,7.6,17,17S59.4,67,50,67z"/>
			<path id="Rectangle_4693" class="st1" d="M83,56h2v4h-2V56z"/>
			<path id="Rectangle_4694" class="st1" d="M83,44h2v8h-2V44z"/>
			<path id="Rectangle_4695" class="st1" d="M15,48h2v8h-2V48z"/>
			<path id="Rectangle_4696" class="st1" d="M15,40h2v4h-2V40z"/>
			<path id="Path_18991" class="st1" d="M95.2,71H85v-7h-2v9h7.8L76,90.5L61.2,73H68v-2h-4.5c11.6-7.5,15-22.9,7.5-34.5
				c-6.4-9.9-18.9-14-29.9-9.8L24,6.5L4.8,29H15v7h2v-9H9.2L24,9.5L38.8,27H32v2h4.5c-11.6,7.5-15,22.9-7.5,34.5
				c6.4,9.9,18.9,14,29.9,9.8L76,93.5L95.2,71z M27,50c0-12.7,10.3-23,23-23s23,10.3,23,23S62.7,73,50,73S27,62.7,27,50z"/>
		</g>
		<g>
			<g id="XMLID_3_">
				<path id="Path_18985_3_" class="st2" d="M46,60.5h-2.3V51h7.8c0.3,0,0.5,0,0.8,0c2.6-0.2,4.6-2.1,4.4-4.3c0-0.2,0-0.4,0-0.6
					c-0.2-2.2-2.5-3.8-5.1-3.6h-2.4l-5.5,0l-0.3-1.8h8.5c0.3,0,0.5,0,0.8,0c3.7,0.2,6.6,2.8,6.4,6c0,0.2,0,0.4,0,0.6
					c-0.2,3.2-3.4,5.6-7.2,5.4H46V60.5z"/>
			</g>
			<g id="XMLID_2_">
				<path id="Path_18985_2_" class="st2" d="M41.7,44.4l10.3,0h0.4c0.4,0,0.8,0.2,0.9,0.6c0,0,0,0.1,0,0.1c0,0.4-0.3,0.7-0.8,0.7
					c0,0-0.1,0-0.1,0H41.9L41.7,44.4z"/>
			</g>
			<g id="XMLID_1_">
				<path id="Path_18985_1_" class="st2" d="M46.6,47.7l5.4,0h0.4c0.4,0,0.8,0.2,0.9,0.6c0,0,0,0.1,0,0.1c0,0.4-0.3,0.7-0.8,0.7
					c0,0-0.1,0-0.1,0l-5.6,0l0-0.1L46.6,47.7z"/>
			</g>
		</g>
	</g>
</g>
<path id="Rectangle_4697" class="st3" d="M0,0h100v100H0V0z"/>
</svg>
