<?xml version="1.0" encoding="utf-8"?>
<!-- Generator: Adobe Illustrator 24.3.0, SVG Export Plug-In . SVG Version: 6.00 Build 0)  -->
<svg version="1.1" id="ic_empty_transactions" xmlns="http://www.w3.org/2000/svg" xmlns:xlink="http://www.w3.org/1999/xlink"
	 x="0px" y="0px" viewBox="0 0 100 100" style="enable-background:new 0 0 100 100;" xml:space="preserve">
<style type="text/css">
	.st0{fill:#D6D6D6;}
	.st1{fill:#666666;}
	.st2{fill:#666666;stroke:#666666;stroke-width:0.1653;stroke-miterlimit:10;}
	.st3{fill:none;}
</style>
<g id="Group_9015">
	<path id="Path_18970" class="st0" d="M50,26c-13.3,0-24,10.7-24,24s10.7,24,24,24s24-10.7,24-24S63.3,26,50,26z M50,68
		c-9.9,0-18-8.1-18-18s8.1-18,18-18s18,8.1,18,18S59.9,68,50,68z"/>
	<g id="Group_9014">
		<g id="Group_9013">
			<path id="Path_18972" class="st1" d="M50,31c-10.5,0-19,8.5-19,19s8.5,19,19,19s19-8.5,19-19S60.5,31,50,31z M50,67
				c-9.4,0-17-7.6-17-17s7.6-17,17-17s17,7.6,17,17S59.4,67,50,67z"/>
			<path id="Rectangle_4664" class="st1" d="M83,56h2v4h-2V56z"/>
			<path id="Rectangle_4665" class="st1" d="M83,44h2v8h-2V44z"/>
			<path id="Rectangle_4666" class="st1" d="M15,48h2v8h-2V48z"/>
			<path id="Rectangle_4667" class="st1" d="M15,40h2v4h-2V40z"/>
			<path id="Path_18973" class="st1" d="M95.2,71H85v-7h-2v9h7.8L76,90.5L61.2,73H68v-2h-4.5c11.6-7.5,15-22.9,7.5-34.5
				c-6.4-9.9-18.9-14-29.9-9.8L24,6.5L4.8,29H15v7h2v-9H9.2L24,9.5L38.8,27H32v2h4.5c-11.6,7.5-15,22.9-7.5,34.5
				c6.4,9.9,18.9,14,29.9,9.8L76,93.5L95.2,71z M27,50c0-12.7,10.3-23,23-23s23,10.3,23,23S62.7,73,50,73S27,62.7,27,50z"/>
		</g>
		<g>
			<g id="XMLID_268_">
				<path id="Path_18985_91_" class="st2" d="M45.3,63h-2.9V51h9.8c0.3,0,0.6,0,1,0c3.3-0.2,5.8-2.6,5.5-5.4c0-0.3,0-0.5,0-0.8
					c-0.3-2.8-3.2-4.8-6.4-4.5h-3.1l-7,0L41.9,38h10.7c0.3,0,0.7,0,1,0c4.7,0.2,8.3,3.6,8.1,7.6c0,0.3,0,0.5,0,0.8
					c-0.3,4-4.3,7.1-9.1,6.9h-7.3V63z"/>
			</g>
			<g id="XMLID_275_">
				<path id="Path_18985_93_" class="st2" d="M39.8,42.6l13,0h0.5c0.6,0,1.1,0.3,1.1,0.8c0,0,0,0.1,0,0.1c0,0.5-0.4,0.9-0.9,0.9
					c-0.1,0-0.1,0-0.2,0H40.1L39.8,42.6z"/>
			</g>
			<g id="XMLID_274_">
				<path id="Path_18985_92_" class="st2" d="M46,46.8l6.8,0h0.5c0.6,0,1.1,0.3,1.1,0.8c0,0,0,0.1,0,0.1c0,0.5-0.4,0.9-0.9,0.9
					c-0.1,0-0.1,0-0.2,0l-7,0l0-0.1L46,46.8z"/>
			</g>
		</g>
	</g>
</g>
<path id="Rectangle_4668" class="st3" d="M0,0h100v100H0V0z"/>
</svg>
